<?xml version="1.0" encoding="utf-8"?>
<!-- Generator: Adobe Illustrator 24.0.1, SVG Export Plug-In . SVG Version: 6.00 Build 0)  -->
<svg version="1.1" id="Camada_1" xmlns="http://www.w3.org/2000/svg" xmlns:xlink="http://www.w3.org/1999/xlink" x="0px" y="0px"
	 viewBox="0 0 30 30" style="enable-background:new 0 0 30 30;" xml:space="preserve">
<path d="M23.1,5.17H6.9c-2.1,0-3.82,1.78-3.82,3.96v9.83c0,3.23,2.53,5.86,5.64,5.86h12.54c3.11,0,5.64-2.63,5.64-5.86V9.14
	C26.91,6.95,25.2,5.17,23.1,5.17z M22.46,7.8l-6.22,7.4c-0.32,0.38-0.76,0.59-1.24,0.59c-0.48,0-0.92-0.21-1.24-0.59L7.54,7.8H22.46
	z M21.27,22.2H8.73c-1.72,0-3.12-1.45-3.12-3.24V9.5l6.24,7.43c0.79,0.94,1.94,1.48,3.15,1.48s2.35-0.54,3.15-1.48l6.24-7.43v9.47
	C24.39,20.75,22.99,22.2,21.27,22.2z"/>
</svg>
