<?xml version="1.0" encoding="utf-8"?>
<!-- Generator: Adobe Illustrator 24.0.1, SVG Export Plug-In . SVG Version: 6.00 Build 0)  -->
<svg version="1.1" id="Camada_1" xmlns="http://www.w3.org/2000/svg" xmlns:xlink="http://www.w3.org/1999/xlink" x="0px" y="0px"
	 viewBox="0 0 30 30" style="enable-background:new 0 0 30 30;" xml:space="preserve">
<path fill="#68a8cfb9" d="M15.78,1.89C8.33,1.89,2.29,7.76,2.29,15c0,7.24,6.04,13.11,13.5,13.11s13.5-5.87,13.5-13.11
	C29.28,7.76,23.24,1.89,15.78,1.89z M16.41,22.29c-1.45,0-2.8-0.4-3.95-1.09l-3.54,1.03c-0.6,0.18-1.12-0.44-0.82-0.98l1.63-2.94
	C9.21,17.32,8.91,16.19,8.91,15c0-4.02,3.36-7.29,7.5-7.29c4.14,0,7.5,3.26,7.5,7.29S20.55,22.29,16.41,22.29z"/>
</svg>
