<?xml version="1.0" encoding="utf-8"?>
<!-- Generator: Adobe Illustrator 24.0.1, SVG Export Plug-In . SVG Version: 6.00 Build 0)  -->
<svg version="1.1" id="Camada_1" xmlns="http://www.w3.org/2000/svg" xmlns:xlink="http://www.w3.org/1999/xlink" x="0px" y="0px"
	 viewBox="0 0 50 50" style="enable-background:new 0 0 50 50;" xml:space="preserve">
<style type="text/css">
	.st0{fill:#29ABE2;}
</style>
<path class="st0" d="M25,8.42C15.84,8.42,8.42,15.84,8.42,25S15.84,41.58,25,41.58S41.58,34.16,41.58,25S34.16,8.42,25,8.42z
	 M32.73,30.69c0,2.22-1.8,4.03-4.03,4.03h-7.27c-2.22,0-4.03-1.8-4.03-4.03v-3.31h15.32V30.69z M33.51,25.02h-0.77H18.64h-2
	c-0.49,0-0.76-0.58-0.43-0.95l6.87-7.87c1.06-1.21,2.94-1.21,3.99,0l6.87,7.87C34.26,24.44,34,25.02,33.51,25.02z"/>
</svg>
