<?xml version="1.0" encoding="utf-8"?>
<!-- Generator: Adobe Illustrator 24.0.1, SVG Export Plug-In . SVG Version: 6.00 Build 0)  -->
<svg version="1.1" id="Camada_1" xmlns="http://www.w3.org/2000/svg" xmlns:xlink="http://www.w3.org/1999/xlink" x="0px" y="0px"
	 viewBox="0 0 50 50" style="enable-background:new 0 0 50 50;" xml:space="preserve">
<style type="text/css">
	.st0{fill:#68a7cf;}
</style>
<g>
	<path class="st0" d="M35.33,19.58c-0.78-4.33-4.67-7.56-9.14-7.56c-4.47,0-8.36,3.23-9.14,7.56c-3.54,1.37-5.91,4.77-5.91,8.55
		c0,5.06,4.17,9.18,9.29,9.18c0.85,0,1.68-0.12,2.48-0.34c0.79,0.39,1.66,0.74,2.61,1.03v4.16h1.34v-4.16
		c0.95-0.3,1.82-0.65,2.61-1.03c0.8,0.22,1.64,0.34,2.48,0.34c5.12,0,9.29-4.12,9.29-9.18C41.23,24.36,38.87,20.95,35.33,19.58z
		 M31.95,36.5c-0.46,0-0.92-0.04-1.37-0.11c6.1-3.56,6.89-9.33,6.89-9.33s-5.93,0.79-9.53,6.95c1.87-6.87-1.76-11.58-1.76-11.58
		s-3.63,4.71-1.76,11.58c-3.59-6.16-9.53-6.95-9.53-6.95s0.79,5.77,6.89,9.33c-0.45,0.07-0.91,0.11-1.37,0.11
		c-4.66,0-8.46-3.75-8.46-8.36c0-3.51,2.25-6.68,5.59-7.87l0.23-0.08l0.04-0.24c0.62-4.05,4.21-7.1,8.36-7.1s7.74,3.05,8.36,7.1
		l0.04,0.24l0.23,0.08c3.34,1.19,5.59,4.35,5.59,7.87C40.41,32.75,36.61,36.5,31.95,36.5z"/>
	<g>
		<path class="st0" d="M7.72,20.21L7.3,21.39c0.13,0.09,0.26,0.18,0.39,0.27c0.13,0.09,0.24,0.16,0.34,0.23
			c0,0.06-0.01,0.12-0.01,0.18c-0.01,0.06-0.03,0.13-0.05,0.21c-0.06,0.18-0.14,0.3-0.23,0.37c-0.09,0.07-0.2,0.08-0.32,0.04
			c-0.06-0.02-0.11-0.05-0.16-0.08c-0.05-0.03-0.1-0.07-0.16-0.12c-0.1-0.07-0.22-0.15-0.37-0.26s-0.3-0.23-0.47-0.35
			c-0.17-0.13-0.34-0.26-0.51-0.4c-0.17-0.14-0.34-0.27-0.5-0.39c-0.16-0.13-0.3-0.24-0.44-0.34c-0.13-0.1-0.24-0.19-0.31-0.26
			c-0.02-0.07-0.02-0.18-0.01-0.32c0.01-0.14,0.04-0.27,0.08-0.39c0.06-0.18,0.14-0.33,0.24-0.45c0.1-0.12,0.21-0.18,0.35-0.18
			c0.24,0,0.52,0,0.84,0.01c0.32,0.01,0.64,0.02,0.97,0.03s0.66,0.03,0.98,0.04c0.32,0.02,0.61,0.03,0.86,0.05
			c0.04,0.06,0.06,0.14,0.06,0.24c0,0.1-0.02,0.21-0.06,0.33c-0.06,0.17-0.13,0.28-0.22,0.33c-0.09,0.05-0.2,0.07-0.34,0.06
			L7.72,20.21z M5.43,20.08c0.16,0.12,0.35,0.26,0.55,0.42c0.2,0.16,0.42,0.32,0.63,0.48l0.3-0.86c-0.28-0.02-0.55-0.03-0.81-0.04
			s-0.48-0.02-0.67-0.03L5.43,20.08z"/>
		<path class="st0" d="M9.47,18.57c-0.09,0.17-0.18,0.28-0.28,0.32c-0.09,0.04-0.22,0.03-0.38-0.06L5.46,17.1
			c0.01-0.04,0.03-0.1,0.05-0.18c0.03-0.08,0.06-0.15,0.1-0.24c0.09-0.17,0.18-0.27,0.28-0.32c0.1-0.05,0.23-0.03,0.39,0.05
			l3.35,1.73c-0.01,0.05-0.03,0.11-0.06,0.18S9.51,18.48,9.47,18.57z"/>
		<path class="st0" d="M10.83,15.89c-0.02,0.09-0.05,0.19-0.09,0.29c-0.04,0.1-0.1,0.21-0.18,0.32c-0.11,0.16-0.24,0.29-0.39,0.4
			c-0.14,0.11-0.3,0.18-0.48,0.22c-0.17,0.03-0.36,0.03-0.56-0.02c-0.2-0.05-0.42-0.15-0.64-0.31C8.28,16.63,8.12,16.47,8,16.3
			c-0.11-0.17-0.18-0.36-0.2-0.55c-0.02-0.19,0-0.39,0.06-0.59c0.06-0.2,0.16-0.4,0.31-0.59c0.14-0.19,0.29-0.35,0.46-0.48
			c0.17-0.12,0.31-0.21,0.44-0.26c0.09-0.03,0.18-0.05,0.27-0.05c0.09,0,0.17,0.03,0.26,0.1l1.98,1.39c0.18,0.13,0.32,0.27,0.4,0.43
			c0.09,0.16,0.13,0.33,0.13,0.5c0,0.18-0.03,0.36-0.1,0.54c-0.07,0.19-0.17,0.37-0.3,0.55c-0.13,0.19-0.27,0.34-0.4,0.45
			c-0.13,0.11-0.25,0.19-0.35,0.24c-0.17,0.06-0.32,0.04-0.46-0.06c-0.07-0.05-0.13-0.11-0.17-0.19c-0.04-0.07-0.06-0.14-0.06-0.2
			c0.13-0.06,0.25-0.14,0.39-0.23c0.13-0.1,0.25-0.22,0.35-0.36c0.14-0.19,0.22-0.37,0.23-0.53c0.01-0.16-0.06-0.3-0.22-0.41
			L10.83,15.89z M10.05,15.93c0.06-0.08,0.1-0.16,0.12-0.24c0.02-0.08,0.03-0.15,0.03-0.22l-1.08-0.76c-0.05,0.03-0.1,0.06-0.15,0.1
			c-0.05,0.04-0.11,0.09-0.16,0.17c-0.12,0.17-0.16,0.34-0.13,0.51c0.03,0.18,0.15,0.34,0.38,0.5c0.12,0.08,0.23,0.14,0.33,0.17
			c0.1,0.03,0.19,0.04,0.27,0.03c0.08-0.01,0.15-0.04,0.22-0.08C9.94,16.06,10,16,10.05,15.93z"/>
		<path class="st0" d="M13.12,11.61c0.18,0.18,0.31,0.37,0.39,0.57s0.13,0.4,0.12,0.6c-0.01,0.2-0.05,0.4-0.15,0.59
			c-0.09,0.19-0.23,0.38-0.41,0.55c-0.18,0.17-0.37,0.3-0.57,0.39c-0.2,0.09-0.4,0.13-0.6,0.13c-0.2,0-0.4-0.05-0.6-0.14
			c-0.2-0.09-0.39-0.23-0.56-0.41c-0.17-0.18-0.3-0.37-0.39-0.57c-0.08-0.2-0.12-0.4-0.12-0.6c0.01-0.2,0.05-0.4,0.15-0.59
			c0.09-0.19,0.23-0.38,0.41-0.54c0.18-0.17,0.36-0.29,0.56-0.38c0.2-0.08,0.4-0.12,0.6-0.12c0.2,0,0.4,0.05,0.6,0.14
			C12.76,11.3,12.94,11.43,13.12,11.61z M11.33,12.11c-0.15,0.14-0.21,0.3-0.18,0.48c0.02,0.18,0.13,0.38,0.33,0.57
			c0.2,0.21,0.39,0.32,0.57,0.35c0.18,0.03,0.35-0.02,0.5-0.17c0.15-0.14,0.21-0.3,0.19-0.49c-0.03-0.18-0.14-0.37-0.33-0.58
			c-0.19-0.2-0.38-0.31-0.57-0.34C11.64,11.92,11.47,11.97,11.33,12.11z"/>
		<path class="st0" d="M14.01,9.03c0.08-0.05,0.17-0.1,0.25-0.13c0.08-0.04,0.16-0.06,0.24-0.08l-0.59-0.9
			c0.03-0.04,0.08-0.08,0.14-0.13c0.06-0.05,0.13-0.1,0.21-0.16c0.16-0.1,0.3-0.15,0.4-0.14c0.11,0.01,0.21,0.09,0.31,0.24l1.71,2.6
			c0.06,0.09,0.09,0.17,0.09,0.25c0,0.08-0.02,0.17-0.07,0.27c-0.06,0.13-0.15,0.26-0.28,0.42c-0.13,0.15-0.29,0.29-0.5,0.43
			c-0.45,0.29-0.89,0.41-1.3,0.35c-0.41-0.06-0.76-0.31-1.06-0.77c-0.15-0.24-0.25-0.46-0.3-0.68c-0.04-0.22-0.04-0.42,0.01-0.61
			c0.05-0.19,0.14-0.37,0.27-0.53C13.66,9.3,13.82,9.15,14.01,9.03z M14.93,9.47c-0.06,0.01-0.12,0.02-0.19,0.04
			c-0.07,0.02-0.13,0.05-0.19,0.09c-0.19,0.13-0.31,0.28-0.35,0.48c-0.04,0.19,0.03,0.42,0.2,0.67c0.16,0.25,0.33,0.39,0.52,0.43
			c0.18,0.04,0.37,0,0.57-0.13c0.08-0.05,0.14-0.1,0.19-0.15c0.05-0.05,0.08-0.1,0.11-0.15L14.93,9.47z"/>
		<path class="st0" d="M16.51,6.18c0.08-0.03,0.17-0.06,0.25-0.07c0.08-0.01,0.17-0.02,0.25-0.03c0.08-0.01,0.16-0.01,0.23-0.02
			c0.07-0.01,0.13-0.02,0.17-0.04c0.08-0.03,0.14-0.08,0.16-0.15c0.02-0.07,0.04-0.12,0.04-0.17l0.03-0.01
			c0.12-0.05,0.23-0.05,0.35-0.01c0.12,0.04,0.2,0.13,0.26,0.25c0.07,0.16,0.07,0.31,0,0.43c-0.07,0.12-0.19,0.22-0.35,0.28
			c-0.1,0.04-0.19,0.07-0.27,0.08c-0.09,0.02-0.17,0.02-0.25,0.03c-0.08,0-0.15,0.01-0.22,0.02c-0.06,0.01-0.12,0.02-0.17,0.04
			c-0.08,0.03-0.14,0.08-0.16,0.15c-0.02,0.07-0.04,0.12-0.04,0.17l-0.02,0.01c-0.12,0.05-0.23,0.05-0.35,0.01
			c-0.12-0.04-0.21-0.13-0.26-0.26c-0.03-0.08-0.05-0.16-0.04-0.24s0.03-0.14,0.07-0.2c0.04-0.06,0.08-0.12,0.14-0.16
			C16.38,6.25,16.44,6.21,16.51,6.18z M17.44,7.23c0.21-0.08,0.4-0.14,0.59-0.17c0.19-0.03,0.36-0.02,0.51,0.01s0.29,0.11,0.42,0.22
			c0.12,0.11,0.22,0.25,0.3,0.43l0.56,1.33c0.04,0.1,0.05,0.19,0.02,0.28c-0.03,0.08-0.07,0.16-0.13,0.24
			c-0.09,0.13-0.22,0.24-0.38,0.36c-0.16,0.11-0.36,0.22-0.58,0.31c-0.41,0.17-0.77,0.22-1.07,0.17c-0.31-0.06-0.53-0.24-0.66-0.56
			c-0.11-0.27-0.12-0.51-0.02-0.72c0.1-0.21,0.32-0.4,0.64-0.57l0.76-0.41l-0.03-0.06c-0.05-0.13-0.14-0.2-0.27-0.21
			c-0.13-0.02-0.29,0.02-0.48,0.1c-0.15,0.06-0.29,0.14-0.42,0.24c-0.13,0.09-0.24,0.19-0.34,0.28c-0.06-0.01-0.12-0.04-0.18-0.09
			c-0.06-0.05-0.11-0.11-0.14-0.19c-0.07-0.17-0.03-0.33,0.12-0.48c0.1-0.09,0.22-0.18,0.36-0.26C17.15,7.36,17.29,7.29,17.44,7.23z
			 M18.46,9.56c0.09-0.04,0.17-0.08,0.25-0.13c0.08-0.05,0.13-0.1,0.16-0.15l-0.23-0.54l-0.47,0.24c-0.12,0.06-0.21,0.13-0.27,0.21
			c-0.06,0.08-0.07,0.16-0.03,0.25c0.04,0.09,0.11,0.15,0.2,0.18C18.17,9.65,18.3,9.63,18.46,9.56z"/>
		<path class="st0" d="M23.29,7.27c0.05,0.25,0.06,0.47,0.03,0.69c-0.03,0.21-0.11,0.4-0.22,0.57C23,8.69,22.85,8.83,22.67,8.95
			c-0.18,0.12-0.39,0.2-0.64,0.25c-0.24,0.05-0.47,0.06-0.69,0.03c-0.22-0.03-0.41-0.1-0.58-0.21c-0.17-0.11-0.31-0.25-0.43-0.43
			c-0.12-0.18-0.2-0.4-0.26-0.65c-0.05-0.24-0.06-0.47-0.03-0.68c0.04-0.21,0.11-0.4,0.22-0.57c0.11-0.17,0.26-0.31,0.44-0.43
			c0.18-0.12,0.39-0.2,0.63-0.25c0.24-0.05,0.47-0.06,0.68-0.03c0.21,0.03,0.41,0.1,0.58,0.21c0.17,0.11,0.32,0.25,0.44,0.43
			C23.16,6.82,23.24,7.03,23.29,7.27z M21.5,6.76c-0.2,0.04-0.34,0.15-0.41,0.32C21.01,7.25,21,7.47,21.06,7.74
			c0.06,0.28,0.16,0.48,0.3,0.6c0.14,0.12,0.31,0.16,0.51,0.12c0.2-0.04,0.34-0.15,0.42-0.32c0.08-0.17,0.08-0.39,0.02-0.66
			c-0.06-0.27-0.16-0.46-0.3-0.59C21.87,6.76,21.7,6.72,21.5,6.76z"/>
		<path class="st0" d="M26.39,7.47L26.33,8.7c-0.05,0.01-0.11,0.02-0.2,0.03c-0.09,0.01-0.18,0.01-0.27,0
			c-0.2-0.01-0.34-0.05-0.42-0.12c-0.08-0.07-0.11-0.2-0.1-0.37l0.14-3.09c0-0.08,0.03-0.15,0.08-0.19c0.05-0.04,0.11-0.08,0.2-0.1
			c0.07-0.02,0.15-0.04,0.24-0.05c0.09-0.01,0.18-0.02,0.27-0.03c0.09-0.01,0.19-0.01,0.28-0.01c0.09,0,0.18,0,0.26,0
			c0.58,0.03,1.02,0.17,1.31,0.42c0.29,0.26,0.43,0.6,0.41,1.02c-0.01,0.2-0.05,0.39-0.14,0.55c-0.08,0.16-0.2,0.3-0.34,0.42
			c-0.15,0.11-0.32,0.2-0.53,0.25c-0.21,0.05-0.44,0.08-0.7,0.07L26.39,7.47z M26.78,6.7c0.21,0.01,0.38-0.03,0.51-0.12
			c0.13-0.09,0.2-0.23,0.21-0.42c0.02-0.38-0.2-0.58-0.66-0.6c-0.08,0-0.14,0-0.2,0c-0.06,0-0.12,0.01-0.17,0.01l-0.05,1.11
			L26.78,6.7z"/>
		<path class="st0" d="M29.63,9.06c-0.04,0-0.11,0-0.18,0c-0.08,0-0.16-0.02-0.26-0.03C29,8.99,28.87,8.93,28.8,8.86
			c-0.07-0.08-0.09-0.2-0.05-0.38l0.39-1.91c0.02-0.12,0.07-0.21,0.15-0.28c0.08-0.07,0.17-0.13,0.29-0.17
			c0.16-0.06,0.34-0.09,0.54-0.1c0.21-0.01,0.42,0.01,0.63,0.05c0.44,0.09,0.63,0.28,0.57,0.57c-0.01,0.07-0.04,0.13-0.07,0.19
			c-0.03,0.05-0.07,0.1-0.1,0.14c-0.09-0.04-0.21-0.07-0.35-0.1c-0.12-0.02-0.25-0.03-0.38-0.03c-0.13,0-0.24,0.02-0.35,0.05
			L29.63,9.06z"/>
		<path class="st0" d="M32.14,8.56c-0.01,0.19,0.05,0.34,0.17,0.46c0.12,0.12,0.27,0.21,0.45,0.28c0.17,0.06,0.34,0.1,0.5,0.1
			c0.17,0.01,0.31,0,0.42-0.02c0.05,0.06,0.08,0.13,0.09,0.21s0.01,0.16-0.02,0.23c-0.03,0.09-0.09,0.16-0.17,0.21
			s-0.18,0.08-0.3,0.09c-0.12,0.01-0.25,0-0.39-0.02c-0.14-0.03-0.3-0.07-0.46-0.13C32.2,9.88,32,9.77,31.82,9.63
			s-0.32-0.3-0.41-0.48c-0.1-0.18-0.15-0.39-0.16-0.61c-0.01-0.23,0.03-0.47,0.13-0.73c0.09-0.26,0.22-0.46,0.37-0.62
			c0.15-0.16,0.32-0.27,0.5-0.35c0.18-0.07,0.38-0.11,0.58-0.1c0.2,0.01,0.4,0.04,0.59,0.11c0.21,0.07,0.38,0.17,0.53,0.3
			c0.15,0.12,0.26,0.26,0.35,0.42c0.08,0.16,0.13,0.32,0.14,0.5c0.01,0.18-0.02,0.36-0.08,0.55c-0.05,0.13-0.12,0.21-0.21,0.25
			c-0.09,0.04-0.2,0.05-0.34,0.02L32.14,8.56z M33.17,7.53c-0.17-0.06-0.34-0.06-0.49,0C32.52,7.6,32.4,7.73,32.3,7.92l1.23,0.23
			c0.03-0.11,0.02-0.22-0.03-0.34C33.45,7.68,33.34,7.59,33.17,7.53z"/>
		<path class="st0" d="M38,12.92c-0.05-0.01-0.11-0.04-0.18-0.07c-0.07-0.03-0.15-0.07-0.22-0.13c-0.16-0.1-0.26-0.2-0.3-0.3
			c-0.04-0.1-0.01-0.22,0.09-0.37l0.87-1.33c0.08-0.12,0.1-0.22,0.07-0.32c-0.03-0.1-0.1-0.18-0.21-0.25
			c-0.07-0.05-0.15-0.08-0.23-0.09c-0.08-0.02-0.16-0.02-0.23-0.01c-0.01,0.02-0.02,0.04-0.03,0.06c-0.01,0.02-0.02,0.04-0.03,0.05
			l-1.16,1.76c-0.05-0.02-0.11-0.04-0.18-0.07c-0.07-0.03-0.15-0.07-0.22-0.13c-0.16-0.1-0.26-0.2-0.3-0.3
			c-0.04-0.1-0.01-0.22,0.09-0.37l0.87-1.33c0.08-0.12,0.1-0.23,0.06-0.33c-0.04-0.1-0.11-0.19-0.21-0.25
			c-0.08-0.05-0.15-0.08-0.23-0.1c-0.08-0.02-0.14-0.03-0.2-0.03l-1.25,1.9c-0.04-0.01-0.1-0.03-0.17-0.07
			c-0.07-0.03-0.15-0.07-0.22-0.13c-0.16-0.1-0.26-0.21-0.3-0.3c-0.04-0.1-0.01-0.22,0.09-0.37l1.09-1.65
			c0.06-0.09,0.13-0.15,0.21-0.19s0.17-0.05,0.27-0.05c0.17-0.01,0.36,0.02,0.57,0.09c0.21,0.06,0.41,0.15,0.6,0.28
			c0.15,0.1,0.28,0.21,0.39,0.34c0.11,0.13,0.19,0.27,0.25,0.43c0.15,0,0.32,0.02,0.49,0.06c0.17,0.04,0.35,0.12,0.53,0.24
			c0.14,0.09,0.26,0.19,0.37,0.31c0.11,0.12,0.18,0.24,0.23,0.38c0.05,0.14,0.06,0.29,0.04,0.45c-0.02,0.16-0.09,0.33-0.2,0.5
			L38,12.92z"/>
		<path class="st0" d="M39.06,14.07c-0.04-0.02-0.09-0.05-0.16-0.1c-0.06-0.04-0.13-0.1-0.2-0.16c-0.14-0.13-0.22-0.25-0.24-0.35
			c-0.02-0.1,0.03-0.22,0.16-0.35l1.82-1.9c0.04,0.02,0.09,0.05,0.16,0.1c0.06,0.04,0.13,0.1,0.2,0.16
			c0.14,0.13,0.22,0.25,0.24,0.35c0.02,0.1-0.04,0.22-0.16,0.35L39.06,14.07z M41.05,10.5c0.1-0.11,0.22-0.16,0.37-0.17
			c0.14-0.01,0.28,0.05,0.39,0.16c0.12,0.11,0.18,0.24,0.18,0.38s-0.05,0.27-0.15,0.37c-0.1,0.11-0.23,0.16-0.37,0.17
			c-0.14,0.01-0.28-0.05-0.39-0.16c-0.12-0.11-0.18-0.24-0.18-0.38C40.89,10.74,40.94,10.61,41.05,10.5z"/>
		<path class="st0" d="M41.36,16.46c-0.15-0.05-0.31-0.14-0.48-0.27c-0.16-0.13-0.32-0.28-0.48-0.47c-0.14-0.18-0.26-0.36-0.34-0.53
			c-0.08-0.18-0.12-0.35-0.12-0.52c0-0.17,0.04-0.34,0.12-0.49c0.08-0.16,0.21-0.31,0.39-0.45l1.47-1.16
			c0.04,0.03,0.09,0.07,0.15,0.12c0.06,0.05,0.12,0.11,0.18,0.19c0.12,0.15,0.18,0.28,0.18,0.38c0,0.1-0.07,0.21-0.21,0.32
			l-1.14,0.9c-0.15,0.12-0.23,0.24-0.23,0.37c0,0.13,0.05,0.26,0.16,0.4c0.07,0.09,0.14,0.15,0.2,0.2c0.06,0.05,0.11,0.08,0.15,0.09
			l1.81-1.43c0.04,0.02,0.08,0.06,0.14,0.12c0.06,0.05,0.12,0.11,0.18,0.19c0.12,0.15,0.18,0.28,0.19,0.38
			c0,0.11-0.07,0.21-0.21,0.33l-1.59,1.26C41.73,16.5,41.56,16.53,41.36,16.46z"/>
		<path class="st0" d="M43.75,21.33c-0.03-0.04-0.07-0.09-0.11-0.15c-0.04-0.06-0.08-0.14-0.12-0.22c-0.08-0.17-0.11-0.31-0.09-0.41
			c0.02-0.1,0.11-0.19,0.28-0.27l1.45-0.68c0.13-0.06,0.21-0.14,0.23-0.24c0.03-0.1,0.01-0.21-0.04-0.32
			c-0.04-0.08-0.08-0.14-0.14-0.2c-0.06-0.05-0.12-0.1-0.19-0.13c-0.02,0.01-0.04,0.02-0.05,0.04c-0.02,0.01-0.04,0.02-0.06,0.03
			l-1.92,0.9c-0.03-0.04-0.07-0.09-0.11-0.15c-0.04-0.06-0.08-0.14-0.12-0.22c-0.08-0.17-0.11-0.31-0.09-0.41
			c0.02-0.1,0.11-0.19,0.28-0.27l1.45-0.68c0.13-0.06,0.2-0.14,0.23-0.25c0.02-0.11,0.01-0.21-0.04-0.32
			c-0.04-0.08-0.09-0.15-0.14-0.2c-0.06-0.05-0.11-0.1-0.15-0.13l-2.07,0.97c-0.03-0.03-0.07-0.08-0.11-0.15
			c-0.04-0.06-0.08-0.14-0.12-0.22c-0.08-0.17-0.11-0.31-0.09-0.41s0.11-0.19,0.27-0.27l1.8-0.84c0.1-0.05,0.19-0.06,0.27-0.05
			c0.08,0.01,0.17,0.05,0.26,0.1c0.15,0.08,0.3,0.21,0.44,0.37c0.14,0.16,0.26,0.34,0.36,0.55c0.08,0.16,0.13,0.32,0.15,0.49
			c0.02,0.17,0.02,0.33-0.02,0.49c0.13,0.08,0.26,0.18,0.38,0.3c0.12,0.12,0.23,0.28,0.33,0.48c0.07,0.15,0.12,0.3,0.15,0.46
			c0.03,0.15,0.03,0.3-0.01,0.44s-0.1,0.28-0.21,0.4c-0.1,0.13-0.25,0.23-0.44,0.32L43.75,21.33z"/>
	</g>
	<g>
		<defs>
			<path id="SVGID_3_" d="M25.91,46.92c-11.05,0-20.05-8.89-20.05-19.82h0.69c0,10.55,8.68,19.13,19.35,19.13
				s19.35-8.58,19.35-19.13h0.69C45.95,38.03,36.96,46.92,25.91,46.92z"/>
		</defs>
		<use xlink:href="#SVGID_3_"  style="overflow:visible;fill:#68a7cf;"/>
		<clipPath id="SVGID_1_">
			<use xlink:href="#SVGID_3_"  style="overflow:visible;"/>
		</clipPath>
	</g>
</g>
</svg>
