<?xml version="1.0" encoding="utf-8"?>
<!-- Generator: Adobe Illustrator 24.0.1, SVG Export Plug-In . SVG Version: 6.00 Build 0)  -->
<svg version="1.1" id="Camada_1" xmlns="http://www.w3.org/2000/svg" xmlns:xlink="http://www.w3.org/1999/xlink" x="0px" y="0px"
	 viewBox="0 0 50 50" style="enable-background:new 0 0 50 50;" xml:space="preserve">
<style type="text/css">
	.st0{fill:#68a7cf;}
	.st1{clip-path:url(#SVGID_1_);}
	.st2{fill:none;stroke:#68a7cf;stroke-width:0.5669;stroke-linecap:round;stroke-linejoin:round;stroke-miterlimit:10;}
	.st3{fill:#ffffff00;}
</style>
<g>
	<g> 
		<path  class="st0" d="M5.48,24.45c0.04,0.06,0.06,0.13,0.07,0.22c0.01,0.09,0.01,0.19,0,0.29c-0.02,0.14-0.06,0.26-0.11,0.35
			c-0.05,0.09-0.12,0.14-0.21,0.16c-0.43,0.08-0.78,0.14-1.07,0.2c-0.28,0.06-0.53,0.1-0.73,0.12l0,0.03
			c0.27,0.06,0.52,0.11,0.74,0.15c0.22,0.04,0.44,0.09,0.66,0.13s0.43,0.08,0.65,0.13c0.22,0.04,0.46,0.09,0.72,0.15
			c0.01,0.05,0.02,0.12,0.02,0.2c0,0.08,0,0.17-0.02,0.26c-0.03,0.17-0.08,0.3-0.15,0.39c-0.07,0.09-0.18,0.12-0.33,0.1
			c-0.08-0.01-0.2-0.03-0.34-0.06c-0.15-0.03-0.31-0.07-0.5-0.11c-0.19-0.04-0.39-0.09-0.61-0.14s-0.44-0.1-0.66-0.15
			c-0.22-0.05-0.44-0.1-0.66-0.15c-0.22-0.05-0.42-0.09-0.61-0.14c-0.04-0.04-0.08-0.12-0.13-0.24s-0.05-0.27-0.02-0.47
			c0.03-0.21,0.09-0.37,0.17-0.48c0.08-0.11,0.21-0.18,0.36-0.22c0.13-0.03,0.27-0.06,0.42-0.09c0.15-0.03,0.31-0.06,0.47-0.09
			c0.16-0.03,0.32-0.06,0.48-0.08c0.16-0.03,0.3-0.05,0.44-0.08l0.01-0.03c-0.37-0.19-0.72-0.37-1.06-0.55
			c-0.34-0.18-0.63-0.34-0.86-0.47c-0.02-0.07-0.04-0.15-0.04-0.25c-0.01-0.1,0-0.21,0.02-0.32c0.03-0.2,0.08-0.35,0.16-0.47
			c0.08-0.11,0.17-0.17,0.28-0.17c0.09,0,0.23,0,0.41,0s0.39,0.02,0.63,0.03c0.23,0.01,0.48,0.03,0.74,0.05
			c0.26,0.02,0.51,0.04,0.75,0.06c0.24,0.02,0.46,0.04,0.66,0.06c0.2,0.02,0.35,0.03,0.46,0.05c0.03,0.07,0.05,0.15,0.06,0.23
			s0,0.17-0.01,0.29C6.7,23.48,6.65,23.6,6.59,23.7c-0.07,0.1-0.18,0.14-0.33,0.12c-0.51-0.05-0.98-0.1-1.4-0.16
			c-0.42-0.06-0.77-0.1-1.04-0.13L3.8,23.57c0.18,0.08,0.4,0.2,0.66,0.34C4.72,24.05,5.06,24.23,5.48,24.45z"/>
		<path class="st0" d="M6.67,18.75c0.24,0.1,0.45,0.22,0.61,0.38c0.17,0.15,0.29,0.33,0.37,0.52c0.08,0.19,0.12,0.4,0.12,0.63
			c0,0.23-0.05,0.46-0.15,0.7c-0.1,0.24-0.22,0.45-0.37,0.61c-0.15,0.17-0.32,0.29-0.51,0.38c-0.19,0.08-0.4,0.12-0.62,0.12
			c-0.22,0-0.46-0.06-0.71-0.16c-0.24-0.1-0.44-0.22-0.6-0.38c-0.16-0.16-0.29-0.33-0.37-0.53c-0.08-0.19-0.12-0.41-0.11-0.63
			c0-0.23,0.05-0.46,0.15-0.7c0.09-0.24,0.22-0.44,0.37-0.6c0.15-0.17,0.32-0.29,0.52-0.37c0.19-0.08,0.4-0.12,0.62-0.12
			C6.2,18.6,6.43,18.65,6.67,18.75z M5.21,20c-0.08,0.2-0.07,0.38,0.04,0.54c0.1,0.17,0.28,0.3,0.55,0.41
			c0.28,0.11,0.5,0.14,0.69,0.09C6.67,21,6.8,20.88,6.88,20.68c0.08-0.2,0.07-0.38-0.03-0.55c-0.1-0.16-0.29-0.3-0.56-0.41
			c-0.26-0.11-0.49-0.14-0.68-0.09C5.42,19.68,5.29,19.8,5.21,20z"/>
		<path class="st0" d="M6.41,15.88c0.05-0.09,0.11-0.16,0.18-0.23c0.06-0.07,0.12-0.13,0.19-0.18l-0.94-0.61
			c0.02-0.05,0.04-0.11,0.07-0.19c0.03-0.08,0.07-0.15,0.13-0.24c0.11-0.17,0.21-0.27,0.32-0.31c0.1-0.04,0.23,0,0.39,0.1L9.46,16
			c0.09,0.06,0.15,0.13,0.19,0.2c0.04,0.08,0.06,0.17,0.06,0.29c0,0.15-0.03,0.32-0.09,0.52c-0.05,0.2-0.15,0.41-0.28,0.62
			c-0.3,0.48-0.66,0.77-1.07,0.89c-0.41,0.12-0.85,0.03-1.32-0.28c-0.25-0.16-0.43-0.33-0.57-0.52c-0.13-0.19-0.22-0.39-0.25-0.59
			c-0.04-0.21-0.03-0.41,0.02-0.63C6.2,16.29,6.29,16.08,6.41,15.88z M7.46,15.91c-0.05,0.03-0.11,0.08-0.16,0.12
			c-0.05,0.05-0.1,0.1-0.14,0.17c-0.13,0.2-0.17,0.41-0.12,0.61c0.05,0.2,0.2,0.39,0.47,0.56c0.26,0.17,0.48,0.23,0.67,0.19
			c0.19-0.04,0.35-0.16,0.48-0.36c0.05-0.08,0.09-0.16,0.11-0.23c0.02-0.07,0.03-0.14,0.04-0.19L7.46,15.91z"/>
		<path class="st0" d="M10.11,14.46c0.18,0.08,0.35,0.1,0.51,0.03c0.16-0.06,0.31-0.17,0.45-0.32c0.13-0.14,0.23-0.28,0.3-0.44
			c0.08-0.16,0.13-0.29,0.15-0.41c0.08-0.02,0.16-0.02,0.24,0c0.08,0.02,0.15,0.05,0.21,0.11c0.07,0.07,0.12,0.15,0.13,0.25
			c0.01,0.1,0,0.2-0.04,0.32c-0.04,0.12-0.1,0.24-0.18,0.36c-0.08,0.13-0.19,0.25-0.31,0.39c-0.18,0.19-0.37,0.35-0.58,0.46
			c-0.2,0.11-0.41,0.18-0.63,0.2c-0.21,0.02-0.43-0.02-0.65-0.1c-0.22-0.08-0.44-0.23-0.65-0.43c-0.21-0.2-0.35-0.4-0.44-0.61
			c-0.09-0.21-0.13-0.42-0.13-0.63c0-0.21,0.05-0.41,0.14-0.6c0.09-0.19,0.2-0.36,0.35-0.51c0.15-0.17,0.32-0.3,0.5-0.39
			c0.18-0.09,0.36-0.14,0.54-0.16c0.18-0.01,0.36,0.01,0.54,0.08c0.18,0.06,0.34,0.17,0.49,0.31c0.1,0.1,0.15,0.2,0.15,0.3
			c0,0.11-0.04,0.22-0.12,0.33L10.11,14.46z M9.55,13.05c-0.13,0.14-0.2,0.3-0.2,0.47c0,0.17,0.07,0.35,0.22,0.52l0.72-1.08
			c-0.09-0.07-0.2-0.11-0.34-0.11C9.81,12.84,9.68,12.91,9.55,13.05z"/>
		<path  class="st0" d="M13.31,13.09c-0.15,0.13-0.29,0.19-0.39,0.2c-0.11,0-0.22-0.07-0.34-0.21l-2.46-3.06
			c0.03-0.04,0.07-0.09,0.12-0.15c0.06-0.06,0.12-0.13,0.2-0.19c0.15-0.12,0.28-0.19,0.39-0.19c0.11,0,0.22,0.07,0.34,0.21
			l2.46,3.06c-0.03,0.04-0.07,0.09-0.13,0.15C13.45,12.97,13.38,13.03,13.31,13.09z"/>
		<path class="st0" d="M13.5,8.81c0.2-0.12,0.39-0.21,0.57-0.27c0.18-0.06,0.36-0.08,0.52-0.07c0.16,0.01,0.32,0.07,0.46,0.16
			c0.14,0.09,0.26,0.22,0.37,0.4l0.78,1.3c0.06,0.1,0.08,0.19,0.07,0.29c-0.02,0.09-0.05,0.18-0.09,0.27
			c-0.07,0.15-0.18,0.29-0.33,0.43c-0.15,0.14-0.33,0.28-0.54,0.42c-0.39,0.24-0.74,0.36-1.06,0.35c-0.32-0.01-0.58-0.17-0.76-0.48
			c-0.16-0.26-0.2-0.51-0.13-0.75c0.07-0.23,0.26-0.47,0.56-0.7l0.7-0.55l-0.04-0.06c-0.07-0.12-0.18-0.18-0.31-0.18
			c-0.13,0-0.29,0.06-0.48,0.18c-0.14,0.09-0.27,0.19-0.39,0.31c-0.12,0.12-0.22,0.24-0.3,0.35c-0.06,0-0.13-0.03-0.2-0.07
			c-0.07-0.04-0.13-0.1-0.17-0.17c-0.1-0.17-0.09-0.34,0.04-0.52c0.08-0.11,0.19-0.22,0.32-0.33C13.22,9,13.36,8.9,13.5,8.81z
			 M14.92,11.08c0.08-0.05,0.16-0.11,0.23-0.18c0.07-0.07,0.12-0.13,0.14-0.18l-0.32-0.53l-0.44,0.33
			c-0.11,0.09-0.19,0.17-0.24,0.26c-0.05,0.09-0.04,0.18,0.01,0.27c0.06,0.09,0.13,0.14,0.23,0.15
			C14.64,11.22,14.76,11.17,14.92,11.08z"/>
		<path class="st0" d="M18.79,9.61c-0.07,0.07-0.15,0.14-0.24,0.2c-0.09,0.06-0.21,0.12-0.34,0.17c-0.19,0.07-0.37,0.12-0.56,0.13
			c-0.19,0.01-0.36-0.01-0.53-0.08c-0.17-0.07-0.33-0.18-0.47-0.34c-0.15-0.16-0.27-0.37-0.37-0.65c-0.09-0.25-0.14-0.48-0.14-0.7
			c0-0.22,0.05-0.42,0.14-0.6c0.09-0.18,0.22-0.34,0.38-0.48c0.17-0.14,0.37-0.26,0.6-0.35c0.23-0.09,0.45-0.14,0.67-0.16
			c0.21-0.01,0.39-0.01,0.52,0.02c0.1,0.02,0.18,0.06,0.26,0.11c0.07,0.05,0.13,0.13,0.17,0.23l0.9,2.36
			c0.08,0.22,0.12,0.42,0.1,0.61s-0.08,0.36-0.17,0.52c-0.1,0.16-0.23,0.3-0.4,0.42c-0.17,0.12-0.36,0.23-0.57,0.31
			c-0.22,0.09-0.42,0.14-0.6,0.17c-0.18,0.03-0.32,0.03-0.44,0.01c-0.18-0.05-0.3-0.15-0.36-0.32c-0.03-0.09-0.05-0.18-0.04-0.26
			c0.01-0.09,0.03-0.16,0.06-0.21c0.14,0.02,0.3,0.03,0.47,0.02c0.17-0.01,0.34-0.05,0.51-0.12c0.23-0.09,0.4-0.2,0.5-0.34
			c0.1-0.13,0.12-0.3,0.05-0.48L18.79,9.61z M18.1,9.2c0.1-0.04,0.18-0.08,0.24-0.14c0.06-0.05,0.11-0.11,0.16-0.18L18,7.6
			c-0.06,0-0.12,0-0.19,0c-0.07,0-0.15,0.02-0.24,0.06c-0.2,0.08-0.33,0.2-0.41,0.37c-0.07,0.17-0.06,0.39,0.04,0.65
			c0.05,0.14,0.12,0.25,0.18,0.34c0.07,0.08,0.14,0.14,0.22,0.18c0.08,0.04,0.15,0.05,0.24,0.05C17.92,9.25,18.01,9.24,18.1,9.2z"/>
		<path class="st0" d="M20.94,8.02c0.1,0.17,0.23,0.28,0.39,0.33c0.17,0.05,0.35,0.05,0.55,0.01c0.18-0.04,0.35-0.09,0.5-0.17
			c0.15-0.08,0.27-0.16,0.36-0.24c0.07,0.03,0.14,0.08,0.2,0.14c0.06,0.06,0.09,0.14,0.11,0.22c0.02,0.1,0.01,0.2-0.04,0.28
			c-0.05,0.09-0.12,0.17-0.22,0.24c-0.1,0.07-0.22,0.13-0.36,0.19c-0.14,0.05-0.3,0.1-0.47,0.13c-0.26,0.05-0.5,0.06-0.73,0.03
			c-0.23-0.03-0.44-0.1-0.62-0.22c-0.18-0.11-0.34-0.27-0.47-0.47c-0.13-0.2-0.22-0.44-0.28-0.73c-0.05-0.28-0.05-0.53,0-0.76
			c0.05-0.22,0.14-0.42,0.26-0.58c0.12-0.17,0.28-0.3,0.46-0.4c0.18-0.1,0.37-0.17,0.58-0.21c0.22-0.04,0.43-0.05,0.63-0.02
			c0.2,0.03,0.37,0.1,0.53,0.2c0.16,0.1,0.29,0.23,0.39,0.38c0.11,0.16,0.18,0.34,0.22,0.54c0.03,0.14,0.01,0.25-0.05,0.34
			c-0.06,0.08-0.16,0.15-0.29,0.2L20.94,8.02z M21.3,6.54c-0.19,0.04-0.33,0.12-0.43,0.26c-0.1,0.14-0.14,0.32-0.12,0.55l1.21-0.44
			c-0.03-0.11-0.1-0.21-0.21-0.29C21.63,6.53,21.49,6.51,21.3,6.54z"/>
		<path class="st0" d="M28.45,8.84c-0.05,0.01-0.11,0.02-0.19,0.03s-0.17,0.01-0.27,0.01c-0.2-0.01-0.34-0.05-0.42-0.11
			c-0.08-0.07-0.12-0.2-0.12-0.38l0.06-1.67c0.01-0.15-0.03-0.26-0.11-0.33c-0.08-0.07-0.18-0.11-0.32-0.12
			c-0.09,0-0.17,0.01-0.25,0.04c-0.08,0.03-0.15,0.07-0.21,0.11c0,0.02,0.01,0.05,0.01,0.07c0,0.02,0,0.05,0,0.07l-0.08,2.22
			c-0.05,0.01-0.11,0.02-0.19,0.03c-0.08,0.01-0.17,0.01-0.27,0.01c-0.2-0.01-0.34-0.05-0.42-0.11c-0.08-0.07-0.12-0.2-0.12-0.38
			l0.06-1.67c0.01-0.15-0.03-0.26-0.12-0.33C25.4,6.24,25.29,6.2,25.16,6.2c-0.09,0-0.18,0.01-0.25,0.03
			c-0.08,0.03-0.14,0.05-0.19,0.08L24.63,8.7c-0.04,0.01-0.11,0.02-0.19,0.03c-0.08,0.01-0.17,0.01-0.27,0.01
			c-0.2-0.01-0.34-0.05-0.43-0.11c-0.09-0.07-0.13-0.2-0.12-0.38l0.08-2.08c0-0.12,0.03-0.21,0.08-0.28
			c0.05-0.07,0.12-0.13,0.21-0.19c0.15-0.1,0.33-0.17,0.55-0.23C24.77,5.4,25,5.38,25.23,5.39c0.19,0.01,0.36,0.04,0.52,0.1
			c0.16,0.06,0.31,0.14,0.45,0.26c0.14-0.08,0.29-0.15,0.46-0.21c0.17-0.05,0.37-0.08,0.6-0.07c0.17,0.01,0.34,0.03,0.49,0.08
			c0.16,0.05,0.29,0.12,0.41,0.22c0.12,0.1,0.21,0.23,0.27,0.39c0.07,0.16,0.1,0.35,0.09,0.57L28.45,8.84z"/>
		<path class="st0" d="M34.34,7.07c-0.03,0.1-0.09,0.17-0.16,0.23c-0.08,0.06-0.15,0.09-0.24,0.11c-0.08-0.11-0.18-0.22-0.29-0.32
			c-0.11-0.1-0.25-0.18-0.43-0.24c-0.33-0.12-0.63-0.1-0.89,0.04c-0.26,0.15-0.46,0.42-0.6,0.81c-0.14,0.41-0.15,0.75-0.02,1.02
			c0.13,0.28,0.36,0.47,0.71,0.6c0.18,0.06,0.34,0.09,0.49,0.09c0.14,0,0.28-0.02,0.41-0.05c0.05,0.07,0.07,0.16,0.09,0.25
			c0.01,0.09,0,0.19-0.03,0.28c-0.03,0.08-0.08,0.16-0.15,0.21c-0.07,0.06-0.17,0.09-0.29,0.11c-0.1,0.01-0.22,0.01-0.38,0
			c-0.15-0.01-0.34-0.06-0.54-0.13c-0.28-0.1-0.53-0.23-0.74-0.4c-0.21-0.17-0.38-0.36-0.51-0.59c-0.12-0.23-0.19-0.49-0.21-0.78
			c-0.01-0.29,0.04-0.61,0.16-0.97c0.11-0.33,0.27-0.6,0.46-0.82c0.19-0.22,0.4-0.38,0.64-0.49c0.23-0.11,0.48-0.17,0.75-0.17
			C32.83,5.86,33.1,5.9,33.37,6c0.38,0.13,0.65,0.3,0.82,0.5C34.35,6.69,34.4,6.88,34.34,7.07z"/>
		<path class="st0" d="M37.08,10.75c-0.13,0.23-0.28,0.42-0.45,0.56c-0.17,0.14-0.36,0.24-0.56,0.3c-0.2,0.05-0.41,0.06-0.63,0.03
			s-0.44-0.12-0.66-0.25c-0.22-0.13-0.41-0.28-0.55-0.45c-0.14-0.17-0.24-0.36-0.3-0.57c-0.06-0.2-0.07-0.42-0.03-0.64
			c0.04-0.22,0.12-0.45,0.25-0.69c0.13-0.23,0.28-0.41,0.45-0.55c0.18-0.14,0.36-0.24,0.56-0.3c0.2-0.05,0.41-0.06,0.63-0.03
			c0.22,0.04,0.44,0.12,0.66,0.24c0.22,0.13,0.4,0.28,0.54,0.45c0.14,0.17,0.24,0.36,0.29,0.57s0.07,0.42,0.03,0.64
			C37.29,10.3,37.21,10.52,37.08,10.75z M36.06,9.11C35.88,9,35.7,8.99,35.52,9.07c-0.18,0.08-0.34,0.24-0.48,0.5
			c-0.15,0.26-0.21,0.49-0.19,0.68c0.02,0.19,0.13,0.34,0.31,0.45c0.18,0.11,0.36,0.12,0.54,0.04c0.17-0.08,0.33-0.25,0.48-0.5
			c0.14-0.25,0.2-0.47,0.18-0.67C36.34,9.36,36.24,9.21,36.06,9.11z"/>
		<path class="st0" d="M40.16,15.65c-0.04-0.02-0.1-0.06-0.17-0.11c-0.07-0.05-0.13-0.1-0.21-0.17c-0.15-0.14-0.23-0.26-0.25-0.37
			c-0.02-0.11,0.03-0.23,0.16-0.37l1.12-1.22c0.1-0.11,0.14-0.21,0.13-0.32c-0.01-0.11-0.07-0.21-0.17-0.3
			c-0.06-0.06-0.14-0.11-0.21-0.14c-0.08-0.03-0.16-0.05-0.23-0.06c-0.01,0.02-0.02,0.04-0.04,0.06c-0.01,0.02-0.03,0.04-0.04,0.05
			l-1.5,1.62c-0.04-0.02-0.1-0.06-0.17-0.11c-0.07-0.05-0.13-0.1-0.21-0.17c-0.15-0.14-0.23-0.26-0.25-0.37
			c-0.02-0.11,0.03-0.23,0.16-0.37l1.12-1.22c0.1-0.11,0.14-0.22,0.12-0.33c-0.02-0.11-0.07-0.21-0.17-0.3
			c-0.07-0.06-0.14-0.11-0.21-0.14c-0.07-0.03-0.14-0.05-0.19-0.07l-1.61,1.75c-0.04-0.02-0.09-0.05-0.16-0.1
			c-0.07-0.05-0.13-0.1-0.21-0.17c-0.15-0.14-0.23-0.26-0.25-0.37c-0.02-0.11,0.03-0.23,0.16-0.37l1.4-1.52
			c0.08-0.08,0.16-0.14,0.24-0.16c0.08-0.02,0.18-0.02,0.29,0c0.18,0.03,0.36,0.09,0.56,0.19c0.2,0.1,0.38,0.24,0.56,0.4
			c0.14,0.13,0.25,0.27,0.33,0.42c0.09,0.15,0.14,0.32,0.17,0.49c0.16,0.03,0.32,0.08,0.48,0.15c0.16,0.07,0.33,0.19,0.5,0.35
			c0.13,0.12,0.23,0.25,0.32,0.39c0.09,0.14,0.14,0.29,0.16,0.44c0.02,0.15,0.01,0.31-0.04,0.47c-0.05,0.16-0.15,0.33-0.3,0.49
			L40.16,15.65z"/>
		<path class="st0" d="M43.39,15.25l0.65,0.94c-0.02,0.04-0.06,0.1-0.1,0.15c-0.04,0.06-0.09,0.11-0.16,0.16
			c-0.12,0.08-0.22,0.12-0.31,0.1c-0.09-0.02-0.16-0.07-0.22-0.15l-0.48-0.7L41,17c-0.04-0.03-0.08-0.07-0.14-0.13
			c-0.05-0.06-0.11-0.13-0.17-0.21c-0.11-0.16-0.17-0.3-0.17-0.41c0-0.11,0.08-0.22,0.23-0.33l2.31-1.64
			c0.18-0.13,0.35-0.21,0.52-0.24c0.17-0.03,0.34-0.02,0.49,0.02c0.16,0.05,0.3,0.13,0.44,0.24c0.14,0.11,0.27,0.25,0.38,0.42
			c0.18,0.26,0.28,0.48,0.3,0.65c0.02,0.17-0.04,0.32-0.2,0.42c-0.07,0.05-0.14,0.08-0.21,0.09c-0.07,0.01-0.13,0.01-0.19-0.01
			c-0.03-0.09-0.06-0.17-0.1-0.26c-0.04-0.09-0.09-0.18-0.16-0.28c-0.12-0.17-0.24-0.28-0.36-0.32c-0.12-0.05-0.25-0.02-0.39,0.08
			L43.39,15.25z"/>
		<path class="st0" d="M44.7,20.46c-0.23,0.12-0.46,0.18-0.69,0.21s-0.43,0-0.63-0.07c-0.2-0.07-0.38-0.18-0.54-0.34
			c-0.16-0.15-0.3-0.35-0.41-0.58c-0.11-0.23-0.18-0.46-0.2-0.69c-0.02-0.23,0-0.44,0.06-0.64c0.07-0.2,0.18-0.38,0.33-0.55
			c0.15-0.17,0.35-0.31,0.59-0.43c0.23-0.11,0.46-0.18,0.68-0.2c0.22-0.02,0.44,0.01,0.63,0.08c0.2,0.07,0.38,0.18,0.54,0.34
			c0.16,0.16,0.3,0.35,0.41,0.58c0.11,0.23,0.18,0.46,0.2,0.68c0.02,0.22,0,0.44-0.07,0.64c-0.07,0.2-0.18,0.38-0.33,0.55
			C45.12,20.21,44.93,20.35,44.7,20.46z M44.76,18.52c-0.09-0.19-0.23-0.3-0.42-0.34c-0.19-0.04-0.41,0.01-0.67,0.14
			c-0.27,0.13-0.44,0.28-0.53,0.45s-0.08,0.35,0.01,0.55c0.09,0.19,0.23,0.31,0.42,0.34c0.19,0.03,0.41-0.01,0.68-0.14
			c0.25-0.13,0.43-0.28,0.52-0.45C44.86,18.89,44.86,18.71,44.76,18.52z"/>
		<path class="st0" d="M43.67,22.59c-0.03-0.04-0.06-0.1-0.09-0.17c-0.03-0.07-0.06-0.16-0.09-0.25c-0.06-0.19-0.07-0.34-0.03-0.45
			c0.04-0.1,0.14-0.18,0.32-0.24l1.94-0.59c0.12-0.04,0.23-0.04,0.33,0c0.1,0.03,0.2,0.1,0.3,0.18c0.13,0.12,0.24,0.27,0.35,0.45
			c0.11,0.18,0.19,0.39,0.26,0.6c0.13,0.45,0.05,0.72-0.25,0.81c-0.07,0.02-0.14,0.03-0.21,0.03c-0.07,0-0.12-0.01-0.17-0.02
			c-0.01-0.11-0.03-0.23-0.08-0.37c-0.04-0.12-0.09-0.24-0.16-0.36c-0.07-0.12-0.14-0.21-0.22-0.29L43.67,22.59z"/>
		<path class="st0" d="M45.02,25.1c-0.04,0.09-0.05,0.2-0.03,0.35c0.01,0.07,0.03,0.14,0.06,0.21s0.06,0.13,0.09,0.18
			c-0.04,0.05-0.08,0.09-0.13,0.12c-0.05,0.04-0.12,0.06-0.19,0.07c-0.15,0.03-0.29-0.02-0.41-0.12c-0.12-0.11-0.2-0.31-0.25-0.61
			c-0.06-0.37-0.02-0.68,0.11-0.91c0.13-0.24,0.39-0.38,0.77-0.45l2.94-0.48c0.02,0.05,0.05,0.11,0.07,0.19
			c0.03,0.08,0.05,0.16,0.06,0.25c0.03,0.19,0.02,0.34-0.03,0.44c-0.05,0.1-0.17,0.16-0.35,0.19l-0.43,0.07l0.15,0.92
			c-0.04,0.03-0.09,0.06-0.16,0.09c-0.06,0.03-0.13,0.06-0.21,0.07c-0.14,0.02-0.25,0.01-0.32-0.05c-0.07-0.05-0.12-0.13-0.13-0.23
			l-0.11-0.67l-1.27,0.21C45.15,24.95,45.06,25.01,45.02,25.1z"/>
	</g>
	<g>
		<defs>
			<ellipse id="SVGID_5_" cx="25.31" cy="28.15" rx="17.13" ry="17.36"/>
		</defs>
		<clipPath id="SVGID_1_">
			<use xlink:href="#SVGID_5_"  style="overflow:visible;"/>
		</clipPath>
		<g class="st1">
			<g>
				<g>
					<g>
						<g>
							<path class="st2" d="M3.39,20.88"/>
						</g>
						<g>
							<path class="st3" d="M38.04,22.92l-0.19-5.87l-4.97-2.22l-4.19-0.25c0,0-1.93,1.84-5.61,2.74s-6.22,0.15-6.22,0.15
								l-3.62,2.15l-2.28,2.84l-1.15,1.43l2.47,5.32l2.92,0.39c0,0,1.37,3.65,2.11,10.67c0.74,7.03,2.19,11.36,2.19,11.36
								c3.6-0.88,5.72,2.37,7.39,4.79c1.67,2.42,5.84,1.55,5.84,1.55s4.1-1.15,4.5-4.07c0.4-2.93,0.84-6.8,4.43-7.68
								c0,0-0.65-4.53-3.15-11.13c-2.5-6.6-2.91-10.48-2.91-10.48L38.04,22.92z"/>
							<path class="st0" d="M32.78,58.1c-0.18,0.04-4.27,0.86-5.98-1.6l-0.14-0.2c-1.65-2.39-3.71-5.37-7.12-4.54
								c-0.06,0.02-0.13-0.02-0.15-0.09c-0.01-0.04-1.47-4.43-2.2-11.39c-0.67-6.39-1.89-10.02-2.08-10.57l-2.84-0.38
								c-0.04-0.01-0.08-0.03-0.1-0.07l-2.47-5.32c-0.02-0.05-0.01-0.1,0.02-0.14l3.43-4.27c0.01-0.01,0.02-0.02,0.03-0.03
								l3.62-2.15c0.03-0.02,0.07-0.02,0.1-0.01c0.03,0.01,2.56,0.73,6.15-0.15c3.6-0.88,5.53-2.69,5.55-2.71
								c0.03-0.02,0.06-0.04,0.1-0.04l4.19,0.25c0.02,0,0.03,0,0.04,0.01l4.97,2.22c0.05,0.02,0.08,0.07,0.08,0.12l0.19,5.87
								c0,0.04-0.02,0.09-0.06,0.11l-2.36,1.65c0.07,0.58,0.62,4.37,2.89,10.37c2.47,6.54,3.15,11.11,3.16,11.16
								c0.01,0.07-0.03,0.13-0.1,0.15c-3.41,0.83-3.9,4.43-4.3,7.32l-0.03,0.24C36.96,56.9,32.95,58.05,32.78,58.1z M19.6,51.47
								c3.51-0.78,5.6,2.24,7.27,4.67l0.14,0.2c1.61,2.32,5.66,1.51,5.7,1.5c0.03-0.01,4.01-1.15,4.4-3.96l0.03-0.25
								c0.4-2.94,0.9-6.59,4.38-7.51c-0.12-0.75-0.88-5.06-3.12-10.98c-2.47-6.54-2.92-10.47-2.92-10.51c0-0.05,0.02-0.09,0.06-0.12
								l2.37-1.66l-0.18-5.72l-4.87-2.18l-4.11-0.24c-0.31,0.27-2.25,1.91-5.62,2.73c-3.37,0.82-5.84,0.26-6.23,0.16l-3.56,2.11
								L9.97,23.9l2.41,5.18l2.85,0.38c0.05,0.01,0.09,0.04,0.1,0.08c0.01,0.04,1.39,3.74,2.12,10.71
								C18.12,46.56,19.38,50.75,19.6,51.47z M38.04,22.92L38.04,22.92L38.04,22.92z"/>
						</g>
						<g>
							<path class="st0" d="M32.53,57.04C32.52,57.04,32.52,57.04,32.53,57.04c-0.09,0.02-0.18,0.04-0.26,0.05
								c-0.07,0.01-0.14-0.03-0.15-0.11c-0.01-0.07,0.03-0.13,0.1-0.15c0.08-0.02,0.17-0.03,0.25-0.05c0.07-0.01,0.14,0.03,0.15,0.1
								C32.64,56.95,32.59,57.02,32.53,57.04z M31.63,57.18c-0.01,0-0.01,0-0.02,0c-0.24,0.02-0.45,0.04-0.66,0.03
								c-0.07,0-0.13-0.06-0.13-0.13c0-0.07,0.06-0.13,0.13-0.13c0.2,0,0.4-0.01,0.63-0.03c0.07-0.01,0.13,0.04,0.14,0.12
								C31.74,57.11,31.69,57.17,31.63,57.18z M30.34,57.16c-0.02,0-0.03,0-0.05,0c-0.22-0.04-0.44-0.09-0.65-0.16
								c-0.07-0.02-0.1-0.1-0.08-0.17c0.02-0.07,0.1-0.1,0.16-0.08c0.19,0.07,0.4,0.12,0.6,0.15c0.07,0.01,0.12,0.08,0.11,0.15
								C30.43,57.11,30.39,57.15,30.34,57.16z M29.13,56.74c-0.03,0.01-0.06,0-0.09-0.01c-0.18-0.1-0.37-0.23-0.56-0.37
								c-0.06-0.04-0.07-0.13-0.03-0.18c0.04-0.06,0.12-0.07,0.18-0.03c0.17,0.13,0.35,0.25,0.53,0.35
								c0.06,0.03,0.09,0.11,0.05,0.18C29.2,56.71,29.16,56.73,29.13,56.74z M28.1,55.96c-0.04,0.01-0.09,0-0.12-0.03
								c-0.15-0.14-0.31-0.3-0.46-0.47c-0.05-0.05-0.04-0.14,0.01-0.19c0.05-0.05,0.14-0.04,0.18,0.01c0.15,0.17,0.3,0.32,0.44,0.46
								c0.05,0.05,0.06,0.13,0.01,0.19C28.14,55.94,28.12,55.95,28.1,55.96z M27.22,55c-0.05,0.01-0.1,0-0.13-0.05
								c-0.13-0.16-0.26-0.34-0.4-0.52c-0.04-0.06-0.03-0.14,0.03-0.18c0.06-0.04,0.14-0.03,0.18,0.03
								c0.13,0.18,0.26,0.35,0.39,0.51c0.04,0.06,0.04,0.14-0.02,0.18C27.26,54.98,27.24,54.99,27.22,55z M26.46,53.94
								c-0.05,0.01-0.11-0.01-0.14-0.05c-0.08-0.12-0.17-0.25-0.25-0.39c-0.03-0.05-0.07-0.11-0.1-0.16
								c-0.04-0.06-0.03-0.14,0.03-0.18c0.06-0.04,0.14-0.03,0.18,0.03c0.04,0.05,0.07,0.11,0.11,0.16
								c0.08,0.13,0.17,0.26,0.25,0.38c0.04,0.06,0.02,0.14-0.03,0.18C26.49,53.93,26.47,53.94,26.46,53.94z M25.7,52.88
								c-0.05,0.01-0.1,0-0.13-0.04c-0.14-0.16-0.28-0.32-0.44-0.46c-0.05-0.05-0.05-0.13-0.01-0.19c0.05-0.05,0.13-0.06,0.18-0.01
								c0.16,0.15,0.31,0.31,0.46,0.48c0.05,0.06,0.04,0.14-0.01,0.18C25.74,52.87,25.72,52.88,25.7,52.88z M24.76,51.99
								c-0.04,0.01-0.08,0-0.11-0.02c-0.16-0.13-0.34-0.25-0.52-0.36c-0.06-0.04-0.08-0.12-0.04-0.18c0.04-0.06,0.12-0.08,0.18-0.04
								c0.19,0.12,0.37,0.24,0.54,0.38c0.06,0.04,0.07,0.13,0.02,0.18C24.82,51.96,24.79,51.98,24.76,51.99z M23.66,51.3
								c-0.03,0.01-0.06,0-0.09-0.01c-0.19-0.09-0.38-0.18-0.58-0.26c-0.07-0.03-0.1-0.1-0.07-0.17c0.03-0.07,0.1-0.1,0.17-0.08
								c0.21,0.08,0.41,0.17,0.6,0.26c0.06,0.03,0.09,0.11,0.06,0.18C23.73,51.27,23.7,51.3,23.66,51.3z M22.46,50.84
								c-0.02,0.01-0.04,0.01-0.07,0c-0.2-0.06-0.41-0.11-0.62-0.16c-0.07-0.01-0.11-0.08-0.1-0.15c0.01-0.07,0.08-0.12,0.15-0.1
								c0.21,0.05,0.43,0.1,0.64,0.16c0.07,0.02,0.11,0.09,0.09,0.16C22.54,50.79,22.5,50.83,22.46,50.84z M21.19,50.57
								c-0.02,0-0.03,0-0.05,0c-0.21-0.03-0.42-0.05-0.63-0.06c-0.07,0-0.13-0.07-0.12-0.14c0-0.07,0.06-0.13,0.14-0.12
								c0.22,0.01,0.44,0.04,0.65,0.07c0.07,0.01,0.12,0.08,0.11,0.15C21.28,50.51,21.24,50.56,21.19,50.57z M19.9,50.48
								c-0.01,0-0.02,0-0.03,0c-0.39,0-0.63,0.03-0.63,0.03c-0.07,0.01-0.14-0.04-0.14-0.11c-0.01-0.07,0.05-0.14,0.11-0.15
								c0.01,0,0.26-0.03,0.66-0.03c0.07,0,0.13,0.06,0.13,0.13C20,50.42,19.96,50.47,19.9,50.48z"/>
						</g>
						<g>
							<path class="st0" d="M32.51,57.04c-0.07,0.02-0.14-0.02-0.15-0.09c-0.02-0.07,0.02-0.14,0.09-0.16
								c0.08-0.02,0.17-0.05,0.25-0.07c0,0,0.01,0,0.01,0c0.07-0.02,0.13,0.02,0.15,0.09c0.02,0.07-0.02,0.14-0.09,0.16
								C32.68,56.99,32.6,57.02,32.51,57.04C32.51,57.04,32.51,57.04,32.51,57.04z M33.37,56.76c-0.06,0.02-0.13-0.02-0.15-0.08
								c-0.03-0.07,0.01-0.14,0.07-0.17c0.21-0.08,0.4-0.17,0.58-0.26c0.07-0.03,0.14-0.01,0.17,0.06c0.03,0.06,0.01,0.14-0.06,0.18
								c-0.18,0.1-0.38,0.19-0.6,0.27C33.38,56.75,33.37,56.76,33.37,56.76z M34.51,56.15c-0.05,0.01-0.1-0.01-0.13-0.05
								c-0.04-0.06-0.03-0.14,0.03-0.18c0.17-0.13,0.33-0.27,0.47-0.41c0.05-0.05,0.13-0.05,0.18,0c0.05,0.05,0.05,0.13,0,0.19
								c-0.15,0.16-0.32,0.31-0.5,0.44C34.54,56.14,34.52,56.14,34.51,56.15z M35.4,55.21c-0.03,0.01-0.07,0-0.1-0.02
								c-0.06-0.04-0.07-0.12-0.03-0.18c0.11-0.17,0.22-0.35,0.31-0.55c0.03-0.06,0.11-0.09,0.17-0.06
								c0.06,0.03,0.09,0.11,0.06,0.18c-0.1,0.21-0.21,0.41-0.33,0.58C35.45,55.18,35.43,55.2,35.4,55.21z M35.97,54.04
								c-0.02,0.01-0.05,0.01-0.07,0c-0.07-0.02-0.1-0.1-0.08-0.17c0.07-0.19,0.13-0.4,0.19-0.61c0.02-0.07,0.09-0.11,0.16-0.09
								c0.07,0.02,0.11,0.09,0.09,0.16c-0.06,0.22-0.13,0.44-0.2,0.63C36.04,54,36.01,54.03,35.97,54.04z M36.31,52.78
								c-0.02,0-0.04,0-0.06,0c-0.07-0.01-0.11-0.08-0.1-0.15c0.04-0.2,0.08-0.42,0.12-0.64c0.01-0.07,0.08-0.12,0.15-0.11
								c0.07,0.01,0.12,0.08,0.11,0.15c-0.04,0.23-0.08,0.44-0.12,0.65C36.4,52.73,36.36,52.77,36.31,52.78z M36.52,51.49
								c-0.01,0-0.03,0-0.05,0c-0.07-0.01-0.12-0.07-0.11-0.15c0.02-0.15,0.04-0.3,0.05-0.46c0.01-0.07,0.01-0.13,0.02-0.19
								c0.01-0.07,0.08-0.12,0.15-0.11c0.07,0.01,0.12,0.08,0.11,0.15c-0.01,0.06-0.02,0.12-0.02,0.19
								c-0.02,0.16-0.03,0.31-0.05,0.46C36.61,51.43,36.57,51.48,36.52,51.49z M36.72,50.2c-0.02,0-0.04,0.01-0.06,0
								c-0.07-0.02-0.11-0.09-0.09-0.16c0.05-0.22,0.12-0.43,0.19-0.64c0.02-0.07,0.1-0.1,0.17-0.08c0.07,0.02,0.1,0.1,0.08,0.17
								c-0.07,0.2-0.13,0.41-0.18,0.61C36.8,50.15,36.76,50.19,36.72,50.2z M37.15,48.97c-0.03,0.01-0.06,0-0.09-0.01
								C37,48.93,36.97,48.85,37,48.78c0.09-0.2,0.2-0.39,0.32-0.59c0.04-0.06,0.12-0.08,0.18-0.04c0.06,0.04,0.08,0.12,0.04,0.18
								c-0.11,0.18-0.21,0.37-0.3,0.56C37.22,48.93,37.19,48.96,37.15,48.97z M37.82,47.85c-0.04,0.01-0.08,0-0.11-0.02
								c-0.06-0.04-0.07-0.13-0.03-0.18c0.13-0.18,0.27-0.35,0.42-0.51c0.05-0.05,0.13-0.06,0.18-0.01
								c0.05,0.05,0.06,0.13,0.01,0.18c-0.14,0.16-0.28,0.33-0.4,0.5C37.88,47.83,37.85,47.84,37.82,47.85z M38.69,46.88
								c-0.04,0.01-0.09,0-0.12-0.04c-0.05-0.05-0.05-0.14,0.01-0.19c0.16-0.15,0.33-0.3,0.5-0.44c0.05-0.05,0.14-0.04,0.18,0.02
								c0.04,0.06,0.04,0.14-0.02,0.18c-0.17,0.14-0.33,0.28-0.48,0.42C38.73,46.86,38.71,46.87,38.69,46.88z M39.69,46.06
								c-0.05,0.01-0.11-0.01-0.14-0.05c-0.04-0.06-0.03-0.14,0.03-0.18c0.18-0.12,0.36-0.25,0.55-0.36
								c0.06-0.04,0.14-0.02,0.18,0.05c0.04,0.06,0.02,0.14-0.04,0.18c-0.18,0.11-0.36,0.23-0.54,0.35
								C39.72,46.05,39.71,46.05,39.69,46.06z M40.8,45.38c-0.06,0.01-0.12-0.01-0.15-0.07c-0.03-0.06-0.01-0.14,0.06-0.18
								c0.36-0.19,0.6-0.27,0.61-0.28c0.06-0.03,0.14,0.01,0.17,0.08c0.02,0.07-0.01,0.14-0.08,0.17c0,0-0.23,0.09-0.58,0.27
								C40.82,45.38,40.81,45.38,40.8,45.38z"/>
						</g>
						<g>
							<path class="st3" d="M36.55,55.71c-0.07,0.05-0.47,0.09-0.99-0.06c-0.52-0.15-1.76-0.25-3.33,0.14
								c-1.57,0.38-2.63,1.04-3.03,1.41c-0.4,0.37-0.77,0.52-0.86,0.51c-1.27-0.15,0.01,0.97,0.01,0.97
								c1.86,1.77,4.75,0.78,4.75,0.78s3.01-0.45,3.87-2.89C36.98,56.58,37.62,54.99,36.55,55.71z"/>
							<path class="st0" d="M33.49,59.52c-0.21,0.05-0.35,0.07-0.37,0.08c-0.1,0.04-2.95,0.99-4.85-0.82
								c-0.17-0.15-0.73-0.67-0.59-1c0.1-0.23,0.44-0.22,0.68-0.19c0.05,0,0.38-0.12,0.75-0.47c0.47-0.43,1.55-1.07,3.08-1.44
								c1.53-0.37,2.79-0.31,3.39-0.14c0.49,0.14,0.83,0.1,0.89,0.07c0.21-0.14,0.5-0.3,0.69-0.14c0.27,0.23,0.01,0.95-0.08,1.17
								C36.39,58.61,34.34,59.31,33.49,59.52z M27.99,57.84c-0.06,0.01-0.07,0.04-0.07,0.04c-0.04,0.09,0.22,0.43,0.53,0.7
								c1.79,1.7,4.59,0.77,4.62,0.76c0.05-0.01,2.97-0.47,3.79-2.81c0.16-0.39,0.23-0.81,0.16-0.87c0,0-0.08-0.05-0.39,0.16
								c0,0,0,0,0,0c-0.13,0.09-0.59,0.1-1.1-0.04c-0.47-0.13-1.68-0.25-3.27,0.14c-1.59,0.39-2.61,1.05-2.97,1.38
								c-0.38,0.36-0.8,0.56-0.96,0.54C28.15,57.82,28.05,57.83,27.99,57.84z M36.55,55.71L36.55,55.71L36.55,55.71z"/>
						</g>
						<g>
							<g>
								<path class="st0" d="M29.03,59.05C29.03,59.05,29.03,59.05,29.03,59.05c-0.22,0.04-0.35,0.03-0.36,0.03
									c-0.07-0.01-0.12-0.07-0.12-0.14c0.01-0.07,0.07-0.12,0.14-0.12c0,0,0.1,0.01,0.28-0.03c0.07-0.01,0.14,0.03,0.15,0.1
									C29.14,58.97,29.1,59.03,29.03,59.05z"/>
							</g>
							<g>
								<path class="st0" d="M29.6,58.86c-0.06,0.01-0.12-0.02-0.15-0.08c-0.03-0.07,0-0.14,0.07-0.17
									c0.17-0.07,0.34-0.17,0.52-0.28c0.06-0.04,0.14-0.02,0.18,0.04c0.04,0.06,0.02,0.14-0.04,0.18
									c-0.19,0.12-0.37,0.21-0.55,0.29C29.62,58.86,29.61,58.86,29.6,58.86z M35.9,57.28c-0.01,0-0.02,0-0.03,0
									c-0.18-0.01-0.38-0.02-0.61-0.04c-0.07-0.01-0.12-0.07-0.12-0.14c0.01-0.07,0.07-0.13,0.14-0.12
									c0.23,0.02,0.43,0.03,0.6,0.04c0.07,0,0.13,0.06,0.12,0.14C35.99,57.22,35.95,57.27,35.9,57.28z M30.63,58.23
									c-0.05,0.01-0.1-0.01-0.13-0.05c-0.04-0.06-0.03-0.14,0.02-0.18c0.15-0.12,0.33-0.23,0.54-0.33c0.07-0.03,0.14,0,0.17,0.06
									s0,0.14-0.06,0.18c-0.19,0.09-0.36,0.2-0.5,0.3C30.67,58.22,30.65,58.23,30.63,58.23z M34.69,57.22c-0.01,0-0.02,0-0.03,0
									c-0.18,0-0.38,0.01-0.6,0.02c-0.07,0-0.13-0.05-0.14-0.12c0-0.07,0.05-0.13,0.12-0.14c0.22-0.02,0.43-0.02,0.61-0.02
									c0.07,0,0.13,0.06,0.13,0.13C34.79,57.15,34.75,57.21,34.69,57.22z M33.48,57.3c0,0-0.01,0-0.01,0
									c-0.19,0.02-0.39,0.05-0.59,0.09c-0.07,0.01-0.14-0.04-0.15-0.11c-0.01-0.07,0.04-0.13,0.11-0.15
									c0.2-0.04,0.41-0.07,0.61-0.09c0.07-0.01,0.14,0.04,0.14,0.11C33.59,57.23,33.55,57.29,33.48,57.3z M31.71,57.69
									c-0.06,0.02-0.13-0.02-0.15-0.09c-0.02-0.07,0.01-0.14,0.08-0.17c0.18-0.06,0.38-0.12,0.59-0.17l0,0
									c0.07-0.02,0.14,0.03,0.16,0.1c0.02,0.07-0.03,0.14-0.09,0.16c-0.2,0.05-0.39,0.11-0.57,0.17
									C31.72,57.68,31.71,57.69,31.71,57.69z"/>
							</g>
							<g>
								<path class="st0" d="M36.6,57.24c-0.03,0.01-0.07,0.02-0.1,0.02c-0.07,0.01-0.14-0.04-0.15-0.11
									c-0.01-0.07,0.03-0.14,0.11-0.15c0.11-0.02,0.19-0.05,0.25-0.08c0.06-0.04,0.14-0.03,0.18,0.03
									c0.04,0.06,0.03,0.14-0.03,0.18C36.79,57.18,36.71,57.22,36.6,57.24z"/>
							</g>
						</g>
						<g>
							<g>
								<ellipse class="st3" cx="31.38" cy="56.82" rx="0.34" ry="0.35"/>
								<path class="st0" d="M31.49,57.29c-0.25,0.06-0.51-0.1-0.57-0.35c-0.06-0.26,0.1-0.51,0.35-0.58
									c0.25-0.06,0.51,0.1,0.57,0.35S31.74,57.23,31.49,57.29z M31.33,56.61c-0.11,0.03-0.19,0.15-0.16,0.26s0.14,0.19,0.26,0.16
									c0.11-0.03,0.18-0.14,0.16-0.26C31.56,56.66,31.44,56.59,31.33,56.61z"/>
							</g>
							<g>
								<ellipse class="st3" cx="33.45" cy="56.32" rx="0.34" ry="0.35"/>
								<path class="st0" d="M33.56,56.78c-0.25,0.06-0.51-0.1-0.57-0.35c-0.06-0.26,0.1-0.51,0.35-0.58
									c0.25-0.06,0.51,0.1,0.57,0.35C33.97,56.46,33.82,56.72,33.56,56.78z M33.4,56.11c-0.11,0.03-0.18,0.14-0.16,0.26
									c0.03,0.12,0.14,0.19,0.26,0.16c0.11-0.03,0.18-0.14,0.16-0.26C33.63,56.15,33.52,56.08,33.4,56.11z"/>
							</g>
						</g>
						<g>
							<path class="st0" d="M14.04,29.06c-0.06,0.01-0.12-0.01-0.15-0.07l-0.27-0.59c-0.03-0.07,0-0.14,0.06-0.17
								c0.06-0.03,0.14,0,0.17,0.06l0.27,0.59c0.03,0.07,0,0.14-0.06,0.17C14.06,29.05,14.05,29.06,14.04,29.06z M13.5,27.87
								c-0.06,0.01-0.12-0.01-0.15-0.07l-0.27-0.59c-0.03-0.07,0-0.14,0.06-0.17c0.06-0.03,0.14,0,0.17,0.06l0.27,0.59
								c0.03,0.07,0,0.14-0.06,0.17C13.51,27.87,13.5,27.87,13.5,27.87z M12.95,26.68c-0.06,0.01-0.12-0.01-0.15-0.07l-0.27-0.59
								c-0.03-0.07,0-0.14,0.06-0.17c0.06-0.03,0.14,0,0.17,0.06l0.27,0.59c0.03,0.07,0,0.14-0.06,0.17
								C12.97,26.68,12.96,26.68,12.95,26.68z M12.4,25.5c-0.06,0.01-0.12-0.01-0.15-0.07l-0.27-0.59c-0.03-0.07,0-0.14,0.06-0.17
								c0.06-0.03,0.14,0,0.17,0.06l0.27,0.59c0.03,0.07,0,0.14-0.06,0.17C12.42,25.49,12.41,25.49,12.4,25.5z M11.86,24.31
								c-0.06,0.01-0.12-0.01-0.15-0.07l-0.27-0.59c-0.03-0.07,0-0.14,0.06-0.17c0.06-0.03,0.14,0,0.17,0.06l0.27,0.59
								c0.03,0.07,0,0.14-0.06,0.17C11.88,24.3,11.87,24.31,11.86,24.31z M11.31,23.12c-0.06,0.01-0.12-0.01-0.15-0.07l-0.27-0.59
								c-0.03-0.07,0-0.14,0.06-0.17c0.06-0.03,0.14,0,0.17,0.06l0.27,0.59c0.03,0.07,0,0.14-0.06,0.17
								C11.33,23.12,11.32,23.12,11.31,23.12z"/>
						</g>
						<g>
							<path class="st0" d="M36.36,23.62c-0.01,0-0.02,0-0.03,0c-0.07,0-0.13-0.05-0.13-0.13l-0.02-0.65c0-0.07,0.06-0.13,0.12-0.14
								c0.07,0,0.13,0.05,0.13,0.13l0.02,0.65C36.46,23.55,36.41,23.6,36.36,23.62z M36.31,22.31c-0.01,0-0.02,0-0.03,0
								c-0.07,0-0.13-0.05-0.13-0.13l-0.02-0.65c0-0.07,0.06-0.13,0.12-0.14c0.07,0,0.13,0.05,0.13,0.13l0.02,0.65
								C36.41,22.24,36.37,22.29,36.31,22.31z M36.26,21c-0.01,0-0.02,0-0.03,0c-0.07,0-0.13-0.05-0.13-0.13l-0.02-0.65
								c0-0.07,0.05-0.13,0.12-0.14c0.07,0,0.13,0.05,0.13,0.13l0.02,0.65C36.36,20.93,36.32,20.98,36.26,21z M36.21,19.69
								c-0.01,0-0.02,0-0.03,0c-0.07,0-0.13-0.05-0.13-0.13l-0.02-0.65c0-0.07,0.05-0.13,0.12-0.14c0.07,0,0.13,0.05,0.13,0.13
								l0.02,0.65C36.31,19.62,36.27,19.67,36.21,19.69z M36.16,18.38c-0.01,0-0.02,0-0.03,0c-0.07,0-0.13-0.05-0.13-0.13
								l-0.02-0.65c0-0.07,0.05-0.13,0.12-0.14c0.07,0,0.13,0.05,0.13,0.13l0.02,0.65C36.27,18.31,36.22,18.37,36.16,18.38z
								 M36.12,17.07c-0.01,0-0.02,0-0.03,0c-0.07,0-0.13-0.05-0.13-0.13l-0.02-0.65c0-0.07,0.05-0.13,0.12-0.14
								c0.07,0,0.13,0.05,0.13,0.13l0.02,0.65C36.22,17,36.18,17.06,36.12,17.07z"/>
						</g>
						<g>
							<path class="st0" d="M15.24,29.72c-0.01,0-0.02,0-0.03,0c-0.07,0-0.13-0.06-0.13-0.13c-0.03-3.26-1.94-9.88-1.96-9.94
								c-0.02-0.07,0.02-0.14,0.09-0.16c0.06-0.02,0.14,0.02,0.16,0.09c0.02,0.07,1.94,6.71,1.97,10.01
								C15.34,29.65,15.3,29.7,15.24,29.72z"/>
						</g>
						<g>
							<path class="st0" d="M35.64,24.74c-0.06,0.01-0.12-0.01-0.15-0.07c-1.46-2.95-2.73-9.76-2.74-9.83
								c-0.01-0.07,0.03-0.14,0.1-0.15c0.07-0.01,0.14,0.03,0.15,0.1c0.01,0.07,1.28,6.84,2.72,9.76c0.03,0.07,0.01,0.14-0.06,0.18
								C35.66,24.74,35.65,24.74,35.64,24.74z"/>
						</g>
						<g>
							<path class="st0" d="M24.3,22.62c-2.12,0.52-3.87,0.29-5.21-0.66c-2.13-1.52-2.45-4.3-2.46-4.42
								c-0.01-0.07,0.04-0.13,0.11-0.14c0.07-0.01,0.13,0.04,0.14,0.12c0,0.03,0.32,2.78,2.35,4.23c1.28,0.91,2.96,1.12,5,0.62
								c2.04-0.5,3.46-1.47,4.21-2.87c1.18-2.23,0.27-4.84,0.26-4.87c-0.02-0.07,0.01-0.14,0.08-0.17c0.07-0.03,0.14,0.01,0.17,0.08
								c0.04,0.11,0.96,2.74-0.28,5.08C27.89,21.09,26.42,22.11,24.3,22.62z"/>
						</g>
						<g>
							<path class="st0" d="M24.55,23.46l-0.09,0.02c-0.07,0.02-0.14-0.03-0.16-0.1c-0.02-0.07,0.03-0.14,0.1-0.16l0.09-0.02
								c0.18-0.04,0.36-0.09,0.53-0.14c0.06-0.03,0.14,0.02,0.16,0.09c0.02,0.07-0.02,0.14-0.09,0.16
								C24.92,23.37,24.73,23.42,24.55,23.46z M23.83,23.62C23.83,23.62,23.83,23.62,23.83,23.62c-0.23,0.04-0.44,0.08-0.65,0.1
								c-0.07,0.01-0.14-0.04-0.15-0.11c-0.01-0.07,0.03-0.14,0.11-0.15c0.2-0.03,0.41-0.06,0.63-0.1c0.07-0.01,0.14,0.03,0.15,0.1
								C23.94,23.53,23.9,23.6,23.83,23.62z M25.7,23.12c-0.06,0.02-0.13-0.02-0.15-0.08c-0.02-0.07,0.01-0.14,0.08-0.17
								c0.21-0.07,0.41-0.15,0.6-0.23c0.07-0.03,0.14,0.01,0.17,0.07c0.03,0.07-0.01,0.14-0.07,0.17c-0.19,0.08-0.4,0.16-0.61,0.23
								C25.71,23.12,25.71,23.12,25.7,23.12z M22.55,23.78c-0.01,0-0.01,0-0.02,0c-0.22,0.02-0.44,0.02-0.65,0.02
								c-0.07,0-0.13-0.06-0.13-0.13c0-0.07,0.06-0.13,0.13-0.13c0.21,0,0.42-0.01,0.64-0.02c0.07,0,0.13,0.05,0.14,0.12
								C22.65,23.71,22.61,23.77,22.55,23.78z M26.9,22.63c-0.06,0.01-0.12-0.01-0.15-0.07c-0.03-0.06-0.01-0.14,0.06-0.18
								c0.19-0.1,0.38-0.2,0.56-0.3c0.06-0.04,0.14-0.02,0.18,0.05c0.04,0.06,0.02,0.14-0.05,0.18c-0.18,0.11-0.38,0.21-0.58,0.31
								C26.91,22.62,26.91,22.63,26.9,22.63z M21.26,23.78c-0.01,0-0.03,0-0.04,0c-0.22-0.02-0.44-0.05-0.65-0.09
								c-0.07-0.01-0.12-0.08-0.1-0.15c0.01-0.07,0.08-0.12,0.15-0.11c0.2,0.04,0.41,0.06,0.63,0.08c0.07,0.01,0.12,0.07,0.12,0.14
								C21.35,23.72,21.31,23.76,21.26,23.78z M28.01,21.96c-0.05,0.01-0.1-0.01-0.14-0.05c-0.04-0.06-0.03-0.14,0.03-0.18
								c0.17-0.13,0.34-0.26,0.5-0.4c0.05-0.05,0.14-0.04,0.18,0.01c0.05,0.05,0.04,0.14-0.01,0.18c-0.16,0.14-0.34,0.28-0.52,0.41
								C28.04,21.95,28.02,21.96,28.01,21.96z M19.99,23.55c-0.02,0.01-0.04,0-0.07,0c-0.21-0.06-0.42-0.14-0.62-0.22
								c-0.07-0.03-0.1-0.1-0.07-0.17c0.03-0.07,0.1-0.1,0.17-0.07c0.19,0.08,0.39,0.15,0.59,0.21c0.07,0.02,0.11,0.09,0.09,0.16
								C20.07,23.5,20.04,23.53,19.99,23.55z M28.97,21.1c-0.04,0.01-0.08,0-0.12-0.03c-0.05-0.05-0.06-0.13-0.01-0.18
								c0.14-0.16,0.28-0.33,0.4-0.5c0.04-0.06,0.12-0.07,0.18-0.03c0.06,0.04,0.07,0.12,0.03,0.18c-0.13,0.18-0.27,0.36-0.42,0.52
								C29.02,21.08,29,21.09,28.97,21.1z M18.8,23.05c-0.03,0.01-0.06,0-0.09-0.01c-0.19-0.11-0.38-0.23-0.56-0.36
								c-0.06-0.04-0.07-0.13-0.03-0.18c0.04-0.06,0.12-0.07,0.18-0.03c0.17,0.13,0.34,0.24,0.53,0.35
								c0.06,0.04,0.08,0.12,0.05,0.18C18.87,23.02,18.84,23.04,18.8,23.05z M29.72,20.04c-0.03,0.01-0.06,0-0.09-0.01
								c-0.06-0.03-0.09-0.11-0.05-0.18c0.1-0.18,0.19-0.38,0.27-0.58c0.03-0.07,0.1-0.1,0.17-0.07c0.07,0.03,0.1,0.1,0.07,0.17
								c-0.08,0.21-0.17,0.41-0.28,0.61C29.78,20.01,29.75,20.03,29.72,20.04z M17.77,22.27c-0.04,0.01-0.09,0-0.12-0.03
								c-0.16-0.15-0.31-0.32-0.45-0.49c-0.05-0.06-0.04-0.14,0.02-0.18c0.06-0.05,0.14-0.04,0.18,0.02
								c0.13,0.16,0.28,0.32,0.43,0.47c0.05,0.05,0.05,0.13,0,0.19C17.81,22.25,17.79,22.26,17.77,22.27z M30.19,18.82
								c-0.02,0-0.04,0-0.06,0c-0.07-0.02-0.11-0.09-0.09-0.16c0.05-0.2,0.09-0.41,0.12-0.63c0.01-0.07,0.07-0.12,0.15-0.11
								c0.07,0.01,0.12,0.08,0.11,0.15c-0.03,0.22-0.07,0.44-0.13,0.66C30.27,18.78,30.23,18.81,30.19,18.82z M16.94,21.26
								c-0.05,0.01-0.11-0.01-0.14-0.06c-0.12-0.18-0.23-0.38-0.33-0.58c-0.03-0.06-0.01-0.14,0.06-0.18
								c0.07-0.03,0.14-0.01,0.17,0.06c0.1,0.19,0.21,0.38,0.32,0.55c0.04,0.06,0.02,0.14-0.04,0.18
								C16.97,21.25,16.96,21.26,16.94,21.26z M30.37,17.53c-0.01,0-0.02,0-0.03,0c-0.07,0-0.13-0.06-0.12-0.14
								c0.01-0.21,0-0.43-0.01-0.64c0-0.07,0.05-0.13,0.12-0.14c0.07,0,0.13,0.05,0.14,0.12c0.01,0.22,0.01,0.45,0.01,0.67
								C30.47,17.46,30.43,17.51,30.37,17.53z M16.34,20.1c-0.06,0.01-0.13-0.02-0.15-0.08c-0.08-0.2-0.16-0.42-0.22-0.63
								c-0.02-0.07,0.02-0.14,0.09-0.16c0.08-0.02,0.14,0.02,0.16,0.09c0.06,0.21,0.13,0.41,0.21,0.61c0.03,0.07,0,0.14-0.07,0.17
								C16.36,20.1,16.35,20.1,16.34,20.1z M30.3,16.22c0,0-0.01,0-0.01,0c-0.07,0.01-0.14-0.04-0.15-0.11
								c-0.03-0.22-0.07-0.43-0.12-0.63c-0.02-0.07,0.03-0.14,0.1-0.16s0.14,0.03,0.16,0.1c0.05,0.21,0.09,0.43,0.12,0.66
								C30.4,16.14,30.36,16.2,30.3,16.22z M15.96,18.85C15.96,18.85,15.96,18.85,15.96,18.85c-0.07,0.02-0.14-0.03-0.16-0.1
								c-0.09-0.4-0.11-0.65-0.11-0.66c-0.01-0.07,0.04-0.13,0.12-0.14c0.07-0.01,0.13,0.05,0.14,0.12c0,0,0.02,0.25,0.1,0.63
								C16.07,18.77,16.03,18.84,15.96,18.85z M30,14.95c-0.06,0.02-0.13-0.02-0.15-0.08c-0.03-0.1-0.06-0.15-0.06-0.16
								c-0.02-0.07,0.02-0.14,0.08-0.17c0.07-0.01,0.13,0,0.16,0.07c0,0.01,0.03,0.07,0.06,0.18c0.02,0.07-0.01,0.14-0.08,0.17
								C30.01,14.94,30,14.94,30,14.95z"/>
						</g>
						<g>
							<path class="st3" d="M16.87,17.46c0,0,0.18,0.53-0.18,2.33s-2.46,3.6-2.46,3.6l-0.98-3.78L16.87,17.46z"/>
							<path class="st0" d="M14.26,23.52c-0.02,0.01-0.05,0-0.07,0c-0.04-0.01-0.07-0.05-0.09-0.09l-0.98-3.78
								c-0.01-0.06,0.01-0.12,0.06-0.15l3.62-2.15c0.03-0.02,0.07-0.02,0.11-0.01c0.04,0.01,0.06,0.04,0.08,0.08
								c0.01,0.02,0.19,0.58-0.17,2.4c-0.37,1.82-2.42,3.6-2.51,3.67C14.3,23.5,14.28,23.51,14.26,23.52z M13.4,19.67l0.9,3.48
								c0.49-0.45,1.97-1.93,2.26-3.39c0.24-1.2,0.24-1.83,0.21-2.1L13.4,19.67z"/>
						</g>
						<g>
							<path class="st0" d="M13.86,21.84c-0.05,0.01-0.11-0.01-0.14-0.06c-0.04-0.06-0.01-0.14,0.05-0.18c0,0,0.21-0.13,0.48-0.39
								c0.05-0.05,0.13-0.05,0.18,0c0.05,0.05,0.05,0.13,0,0.19c-0.29,0.29-0.52,0.43-0.53,0.43
								C13.88,21.83,13.87,21.84,13.86,21.84z M14.78,20.93c-0.04,0.01-0.07,0-0.1-0.02c-0.06-0.04-0.07-0.12-0.03-0.18
								c0.12-0.17,0.22-0.35,0.32-0.55c0.03-0.07,0.11-0.09,0.17-0.06c0.06,0.03,0.09,0.11,0.06,0.17c-0.1,0.2-0.21,0.4-0.34,0.58
								C14.84,20.9,14.81,20.92,14.78,20.93z M15.34,19.75c-0.02,0.01-0.04,0.01-0.07,0c-0.07-0.02-0.11-0.09-0.09-0.16
								c0.06-0.2,0.1-0.41,0.13-0.62c0.01-0.07,0.08-0.12,0.14-0.11c0.07,0.01,0.12,0.08,0.11,0.15c-0.03,0.23-0.08,0.45-0.14,0.66
								C15.42,19.71,15.38,19.74,15.34,19.75z M15.51,18.46c-0.01,0-0.02,0-0.03,0c-0.07,0-0.13-0.06-0.13-0.13l0-0.05
								c0-0.07,0.06-0.13,0.13-0.13c0.07,0,0.13,0.06,0.13,0.13l0,0.04C15.61,18.39,15.57,18.44,15.51,18.46z"/>
						</g>
						<g>
							<path class="st3" d="M28.67,14.58c0,0,0.08,0.55,1.21,1.99c1.13,1.44,3.81,2.07,3.81,2.07l-0.82-3.82L28.67,14.58z"/>
							<path class="st0" d="M33.71,18.77c-0.02,0-0.04,0.01-0.06,0c-0.11-0.03-2.73-0.66-3.88-2.12c-1.14-1.45-1.23-2.03-1.23-2.06
								c-0.01-0.04,0.01-0.08,0.03-0.11c0.03-0.03,0.06-0.04,0.1-0.04l4.19,0.25c0.06,0,0.11,0.05,0.12,0.1l0.82,3.82
								c0.01,0.04,0,0.09-0.04,0.12C33.76,18.75,33.74,18.77,33.71,18.77z M28.85,14.72c0.1,0.25,0.37,0.81,1.13,1.77
								c0.91,1.16,2.9,1.79,3.54,1.97l-0.76-3.51L28.85,14.72z"/>
						</g>
						<g>
							<path class="st0" d="M33.31,17.09c-0.01,0-0.02,0-0.04,0c-0.01,0-0.28-0.02-0.67-0.14c-0.07-0.02-0.11-0.1-0.08-0.16
								c0.02-0.07,0.09-0.11,0.16-0.08c0.35,0.11,0.6,0.13,0.6,0.13c0.07,0,0.13,0.07,0.12,0.14
								C33.41,17.03,33.37,17.08,33.31,17.09z M32.09,16.71c-0.03,0.01-0.06,0-0.09-0.01c-0.2-0.1-0.39-0.23-0.56-0.36
								c-0.06-0.04-0.07-0.13-0.02-0.18c0.04-0.06,0.12-0.07,0.18-0.02c0.17,0.13,0.34,0.24,0.53,0.34
								c0.06,0.03,0.09,0.11,0.05,0.18C32.15,16.67,32.12,16.7,32.09,16.71z M31.06,15.91c-0.04,0.01-0.09,0-0.12-0.04
								c-0.15-0.16-0.29-0.34-0.42-0.52c-0.04-0.06-0.03-0.14,0.03-0.18c0.06-0.04,0.14-0.03,0.18,0.03
								c0.12,0.18,0.25,0.34,0.39,0.49c0.05,0.05,0.05,0.14-0.01,0.19C31.11,15.9,31.09,15.91,31.06,15.91z M30.33,14.84
								c-0.06,0.01-0.12-0.01-0.15-0.07l-0.02-0.04c-0.03-0.06-0.01-0.14,0.06-0.18c0.06-0.03,0.14-0.01,0.17,0.06l0.02,0.04
								c0.03,0.06,0.01,0.14-0.06,0.18C30.35,14.84,30.34,14.84,30.33,14.84z"/>
						</g>
					</g>
				</g>
			</g>
		</g>
	</g>
	<g>
		<defs>
			<path id="SVGID_7_" d="M25.31,49.06c-11.38,0-20.63-9.38-20.63-20.91h0.71c0,11.13,8.93,20.18,19.92,20.18
				s19.92-9.05,19.92-20.18h0.71C45.94,39.68,36.69,49.06,25.31,49.06z"/>
		</defs>
		<use xlink:href="#SVGID_7_"  style="overflow:visible;fill:#68a7cf;"/>
		<clipPath id="SVGID_2_">
			<use xlink:href="#SVGID_7_"  style="overflow:visible;"/>
		</clipPath>
	</g>
</g>
</svg>
