<?xml version="1.0" encoding="utf-8"?>
<!-- Generator: Adobe Illustrator 24.0.1, SVG Export Plug-In . SVG Version: 6.00 Build 0)  -->
<svg version="1.1" id="Camada_1" xmlns="http://www.w3.org/2000/svg" xmlns:xlink="http://www.w3.org/1999/xlink" x="0px" y="0px"
	 viewBox="0 0 50 50" style="enable-background:new 0 0 50 50;" xml:space="preserve">
<style type="text/css">
	.st0{fill:#68a7cf;}
	.st1{fill:#FFFFFF;}
</style>
<g>
	<g>
		<path class="st0" d="M25.39,39.96c-6.54,0-11.87-5.5-11.87-12.25c0-6.76,5.32-12.25,11.87-12.25s11.87,5.5,11.87,12.25
			C37.26,34.46,31.94,39.96,25.39,39.96z M25.39,16.13c-6.18,0-11.22,5.19-11.22,11.58c0,6.38,5.03,11.58,11.22,11.58
			s11.22-5.19,11.22-11.58C36.61,21.32,31.57,16.13,25.39,16.13z"/>
		<g>
			<g id="_x3C_Repetição_radial_x3E__00000145755201601625102140000002713011026531096478_">
				<polygon class="st0" points="25.52,44.78 24.6,43.17 23.69,41.57 25.49,41.55 27.3,41.54 26.41,43.16 				"/>
			</g>
			<g id="_x3C_Repetição_radial_x3E__00000012444656049475020290000007640157984532665007_">
				<polygon class="st0" points="17.23,42.56 17.22,40.69 17.2,38.83 18.77,39.75 20.34,40.67 18.79,41.61 				"/>
			</g>
			<g id="_x3C_Repetição_radial_x3E__00000121990823108842208370000005793266366444466600_">
				<polygon class="st0" points="11.13,36.35 12.02,34.74 12.91,33.12 13.82,34.72 14.74,36.33 12.93,36.34 				"/>
			</g>
			<g id="_x3C_Repetição_radial_x3E__00000068639026336085968250000000344427791782211227_">
				<polygon class="st0" points="8.85,27.83 10.41,26.89 11.96,25.95 11.98,27.81 11.99,29.67 10.42,28.75 				"/>
			</g>
			<g id="_x3C_Repetição_radial_x3E__00000134215812349788543740000015487738297055161786_">
				<polygon class="st0" points="11,19.28 12.81,19.27 14.61,19.25 13.72,20.87 12.83,22.49 11.92,20.89 				"/>
			</g>
			<g id="_x3C_Repetição_radial_x3E__00000116219923007225621700000007048068278427666321_">
				<polygon class="st0" points="17.01,12.98 18.58,13.9 20.15,14.82 18.6,15.76 17.04,16.71 17.03,14.85 				"/>
			</g>
			<g id="_x3C_Repetição_radial_x3E__00000099662606458836092160000015963969548577347218_">
				<polygon class="st0" points="25.26,10.63 26.18,12.24 27.09,13.84 25.29,13.86 23.48,13.87 24.37,12.25 				"/>
			</g>
			<g id="_x3C_Repetição_radial_x3E__00000084497580546298511910000005865474651768147079_">
				<polygon class="st0" points="33.55,12.85 33.56,14.72 33.58,16.58 32.01,15.66 30.44,14.74 32,13.8 				"/>
			</g>
			<g id="_x3C_Repetição_radial_x3E__00000021807738487467942000000003093548684376803212_">
				<polygon class="st0" points="39.65,19.06 38.76,20.68 37.87,22.3 36.96,20.69 36.04,19.08 37.85,19.07 				"/>
			</g>
			<g id="_x3C_Repetição_radial_x3E__00000105407882252325602500000004374663825473611436_">
				<polygon class="st0" points="41.93,27.58 40.37,28.52 38.82,29.46 38.8,27.6 38.79,25.74 40.36,26.66 				"/>
			</g>
			<g id="_x3C_Repetição_radial_x3E__00000137108320161350162680000016248290074199256196_">
				<polygon class="st0" points="39.78,36.13 37.97,36.14 36.17,36.16 37.06,34.54 37.95,32.92 38.86,34.52 				"/>
			</g>
			<g id="_x3C_Repetição_radial_x3E__00000051350481929658755800000017569843831466916792_">
				<polygon class="st0" points="33.77,42.43 32.2,41.51 30.63,40.59 32.19,39.65 33.74,38.7 33.75,40.56 				"/>
			</g>
		</g>
		<g>
			<path class="st0" d="M25.29,37.23c-0.05,0-5.48-0.09-7.53-7.71c-0.54-2-0.03-8.04-0.01-8.3l0.02-0.21l7.52-2.63l7.52,2.63
				l0.02,0.21c0.02,0.26,0.53,6.3-0.01,8.3C30.77,37.14,25.34,37.23,25.29,37.23z"/>
			<g>
				<path class="st1" d="M21.62,26.78h1.13c0.03,0.05,0.06,0.11,0.08,0.2c0.02,0.08,0.04,0.17,0.04,0.26c0,0.17-0.04,0.29-0.11,0.36
					c-0.08,0.07-0.18,0.11-0.3,0.11h-0.83v1.35c-0.05,0.02-0.12,0.03-0.21,0.04c-0.09,0.01-0.18,0.02-0.26,0.02
					c-0.18,0-0.32-0.03-0.42-0.1c-0.09-0.06-0.14-0.2-0.14-0.4V27.7h-1.16c-0.03-0.05-0.06-0.11-0.08-0.19
					c-0.02-0.08-0.03-0.16-0.03-0.25c0-0.17,0.04-0.29,0.11-0.37c0.08-0.08,0.18-0.11,0.3-0.11h0.85v-1.32
					c0.05-0.01,0.12-0.02,0.21-0.04c0.09-0.02,0.18-0.03,0.27-0.03c0.17,0,0.31,0.03,0.41,0.1c0.1,0.07,0.15,0.2,0.15,0.41V26.78z"
					/>
				<path class="st1" d="M26.54,25c0.02,0.08,0.04,0.17,0.04,0.27c0,0.16-0.04,0.29-0.11,0.37c-0.07,0.08-0.17,0.12-0.29,0.12h-1.52
					L24.6,26.6c0.09-0.03,0.19-0.06,0.29-0.08c0.11-0.02,0.24-0.03,0.39-0.03c0.25,0,0.47,0.04,0.66,0.11
					c0.19,0.08,0.35,0.18,0.47,0.31c0.13,0.13,0.22,0.29,0.29,0.48c0.06,0.19,0.1,0.39,0.1,0.6c0,0.21-0.04,0.42-0.11,0.61
					c-0.07,0.19-0.18,0.36-0.33,0.51c-0.15,0.15-0.34,0.26-0.57,0.34c-0.23,0.08-0.5,0.13-0.81,0.13c-0.22,0-0.43-0.02-0.61-0.05
					c-0.19-0.04-0.34-0.09-0.48-0.16c-0.13-0.07-0.24-0.15-0.31-0.25c-0.07-0.1-0.11-0.21-0.11-0.33c0-0.13,0.04-0.24,0.11-0.33
					c0.07-0.09,0.16-0.16,0.24-0.21c0.13,0.11,0.28,0.2,0.45,0.28c0.17,0.08,0.37,0.12,0.63,0.12c0.25,0,0.44-0.06,0.56-0.18
					c0.12-0.12,0.18-0.28,0.18-0.46c0-0.18-0.06-0.32-0.17-0.44c-0.11-0.11-0.28-0.17-0.52-0.17c-0.14,0-0.26,0.02-0.36,0.06
					c-0.1,0.04-0.21,0.09-0.32,0.14c-0.22-0.01-0.4-0.07-0.53-0.19c-0.13-0.12-0.19-0.29-0.19-0.52c0-0.02,0-0.04,0-0.07
					c0-0.03,0-0.07,0.01-0.15l0.1-1.22c0.01-0.2,0.08-0.36,0.18-0.47c0.11-0.11,0.25-0.17,0.44-0.17h2.16
					C26.49,24.86,26.52,24.93,26.54,25z"/>
				<path class="st1" d="M29.28,29.58c-0.29,0-0.55-0.05-0.79-0.15c-0.24-0.1-0.44-0.26-0.62-0.46s-0.3-0.46-0.4-0.76
					c-0.09-0.3-0.14-0.66-0.14-1.07c0-0.4,0.05-0.76,0.14-1.06c0.1-0.3,0.23-0.56,0.4-0.76s0.38-0.36,0.62-0.46
					c0.24-0.1,0.5-0.15,0.78-0.15c0.28,0,0.53,0.05,0.77,0.15c0.24,0.1,0.44,0.26,0.61,0.46s0.31,0.46,0.41,0.76
					s0.15,0.66,0.15,1.06c0,0.41-0.05,0.76-0.14,1.07c-0.1,0.3-0.23,0.56-0.4,0.76s-0.38,0.36-0.62,0.46
					C29.82,29.53,29.56,29.58,29.28,29.58z M30.08,27.14c0-0.49-0.07-0.87-0.22-1.12c-0.15-0.25-0.34-0.38-0.59-0.38
					s-0.44,0.13-0.58,0.38c-0.14,0.25-0.21,0.63-0.21,1.12c0,0.51,0.07,0.89,0.2,1.14c0.14,0.25,0.33,0.37,0.59,0.37
					c0.26,0,0.46-0.12,0.6-0.37C30.01,28.03,30.08,27.65,30.08,27.14z"/>
			</g>
		</g>
	</g>
	<g>
		<path class="st0" d="M10.67,14.88l0.91,0.83c-0.02,0.04-0.06,0.1-0.1,0.17c-0.05,0.07-0.1,0.14-0.16,0.22
			c-0.13,0.15-0.25,0.24-0.35,0.25c-0.1,0.01-0.22-0.04-0.35-0.16l-2.29-2.08c-0.06-0.06-0.1-0.12-0.1-0.18
			c-0.01-0.07,0.01-0.14,0.05-0.22c0.03-0.07,0.06-0.14,0.1-0.22c0.04-0.08,0.09-0.16,0.14-0.24c0.05-0.08,0.1-0.15,0.16-0.23
			c0.06-0.07,0.11-0.14,0.16-0.2c0.38-0.44,0.75-0.7,1.13-0.76c0.38-0.06,0.72,0.05,1.04,0.34c0.15,0.14,0.26,0.29,0.34,0.46
			c0.08,0.17,0.11,0.35,0.11,0.54c0,0.19-0.05,0.38-0.13,0.58c-0.08,0.2-0.21,0.39-0.38,0.59L10.67,14.88z M10.32,14.08
			c0.14-0.16,0.21-0.32,0.22-0.48c0.01-0.16-0.06-0.3-0.2-0.43c-0.28-0.25-0.57-0.21-0.86,0.13c-0.05,0.06-0.09,0.11-0.13,0.16
			c-0.03,0.05-0.07,0.09-0.1,0.14l0.83,0.75L10.32,14.08z"/>
		<path class="st0" d="M13.88,13.36c-0.02,0.04-0.06,0.09-0.11,0.14c-0.05,0.06-0.11,0.12-0.18,0.18c-0.15,0.13-0.27,0.19-0.37,0.2
			c-0.1,0.01-0.21-0.06-0.32-0.2l-1.23-1.52c-0.08-0.09-0.12-0.19-0.13-0.3c-0.01-0.11,0.01-0.22,0.05-0.34
			c0.05-0.16,0.14-0.32,0.26-0.49c0.12-0.17,0.26-0.32,0.43-0.46c0.34-0.29,0.6-0.32,0.79-0.08c0.05,0.06,0.08,0.12,0.1,0.18
			c0.02,0.06,0.04,0.12,0.04,0.17c-0.09,0.05-0.18,0.12-0.29,0.21c-0.09,0.08-0.18,0.17-0.25,0.28c-0.07,0.1-0.13,0.21-0.17,0.31
			L13.88,13.36z"/>
		<path class="st0" d="M16.76,9.5c0.13,0.22,0.21,0.44,0.25,0.65c0.04,0.22,0.03,0.42-0.02,0.62c-0.05,0.2-0.14,0.38-0.27,0.55
			c-0.13,0.17-0.3,0.32-0.51,0.45C16,11.91,15.79,12,15.58,12.04c-0.21,0.04-0.41,0.04-0.6-0.01c-0.19-0.05-0.37-0.14-0.54-0.28
			c-0.17-0.14-0.32-0.32-0.45-0.54c-0.13-0.22-0.21-0.43-0.24-0.65c-0.04-0.22-0.03-0.43,0.02-0.62c0.05-0.2,0.14-0.38,0.27-0.56
			c0.13-0.17,0.3-0.32,0.51-0.45c0.21-0.13,0.41-0.21,0.62-0.25c0.21-0.04,0.41-0.03,0.6,0.02c0.19,0.05,0.37,0.14,0.54,0.28
			C16.48,9.11,16.63,9.29,16.76,9.5z M14.94,9.6c-0.17,0.1-0.26,0.25-0.28,0.44c-0.02,0.19,0.04,0.4,0.18,0.64
			c0.14,0.25,0.3,0.41,0.47,0.48c0.17,0.07,0.34,0.05,0.51-0.05c0.17-0.11,0.27-0.25,0.28-0.44c0.02-0.19-0.05-0.4-0.19-0.65
			c-0.14-0.24-0.29-0.39-0.46-0.47C15.28,9.48,15.11,9.5,14.94,9.6z"/>
		<path class="st0" d="M18.65,9.58c0.09,0.02,0.2,0.01,0.32-0.05c0.06-0.02,0.12-0.06,0.18-0.1c0.06-0.04,0.11-0.08,0.15-0.12
			c0.05,0.03,0.1,0.06,0.14,0.1s0.08,0.1,0.11,0.17c0.05,0.14,0.05,0.28-0.03,0.41c-0.07,0.13-0.24,0.26-0.51,0.37
			c-0.33,0.14-0.61,0.16-0.86,0.08c-0.24-0.08-0.43-0.29-0.57-0.64L16.54,7.1c0.04-0.03,0.09-0.07,0.15-0.11
			c0.06-0.04,0.14-0.08,0.22-0.12c0.17-0.07,0.31-0.09,0.41-0.06c0.1,0.03,0.18,0.13,0.25,0.29l0.15,0.39l0.81-0.33
			c0.04,0.03,0.07,0.08,0.12,0.13c0.04,0.05,0.08,0.12,0.11,0.18c0.05,0.13,0.06,0.23,0.02,0.31c-0.03,0.08-0.1,0.14-0.19,0.17
			L18,8.21l0.45,1.17C18.5,9.49,18.56,9.56,18.65,9.58z"/>
		<path class="st0" d="M20.6,8.53c0.1,0.16,0.23,0.27,0.39,0.3c0.16,0.04,0.33,0.04,0.52-0.01c0.17-0.04,0.33-0.1,0.47-0.19
			c0.14-0.08,0.25-0.17,0.33-0.25c0.07,0.03,0.13,0.07,0.19,0.13s0.09,0.13,0.11,0.21c0.02,0.1,0.01,0.19-0.03,0.27
			c-0.04,0.09-0.11,0.16-0.2,0.24s-0.2,0.14-0.33,0.19c-0.13,0.06-0.28,0.1-0.44,0.14c-0.24,0.06-0.47,0.08-0.69,0.06
			c-0.22-0.02-0.42-0.08-0.6-0.18c-0.18-0.1-0.33-0.25-0.46-0.43c-0.13-0.19-0.23-0.42-0.29-0.7c-0.06-0.27-0.07-0.51-0.03-0.73
			c0.04-0.22,0.11-0.41,0.23-0.57c0.11-0.16,0.25-0.3,0.42-0.4c0.17-0.1,0.35-0.18,0.54-0.23c0.21-0.05,0.41-0.06,0.6-0.04
			c0.19,0.02,0.36,0.08,0.51,0.17c0.15,0.09,0.28,0.21,0.39,0.35c0.11,0.15,0.18,0.32,0.23,0.51c0.03,0.14,0.02,0.25-0.04,0.33
			c-0.05,0.08-0.14,0.15-0.26,0.2L20.6,8.53z M20.89,7.08c-0.18,0.04-0.31,0.13-0.4,0.27c-0.09,0.14-0.12,0.32-0.1,0.53l1.13-0.48
			c-0.03-0.11-0.1-0.2-0.21-0.28C21.2,7.06,21.06,7.04,20.89,7.08z"/>
		<path class="st0" d="M24.75,6.61c-0.23,0.01-0.42,0.1-0.57,0.26c-0.15,0.16-0.22,0.38-0.2,0.67c0.02,0.29,0.11,0.5,0.27,0.64
			c0.16,0.13,0.36,0.19,0.59,0.18c0.13-0.01,0.25-0.03,0.35-0.08c0.1-0.04,0.19-0.09,0.25-0.13c0.07,0.05,0.13,0.11,0.18,0.17
			c0.04,0.06,0.07,0.14,0.07,0.23c0.01,0.13-0.04,0.24-0.14,0.33c-0.1,0.1-0.24,0.17-0.43,0.21c0.09,0.13,0.14,0.29,0.15,0.47
			c0.01,0.22-0.04,0.41-0.17,0.55c-0.12,0.15-0.3,0.23-0.53,0.24c-0.16,0.01-0.3-0.02-0.4-0.1c-0.1-0.07-0.16-0.18-0.17-0.33
			c0-0.06,0-0.12,0.02-0.19l0.07,0c0.13-0.01,0.23-0.05,0.28-0.11c0.05-0.07,0.08-0.15,0.07-0.25c0-0.03-0.01-0.07-0.02-0.12
			c-0.01-0.04-0.03-0.08-0.05-0.12c-0.4-0.04-0.72-0.19-0.97-0.45c-0.25-0.26-0.38-0.62-0.41-1.09c-0.02-0.28,0.01-0.53,0.09-0.74
			c0.08-0.21,0.19-0.39,0.33-0.54c0.14-0.15,0.31-0.26,0.51-0.34c0.2-0.08,0.41-0.13,0.63-0.14c0.29-0.02,0.52,0.02,0.69,0.12
			c0.17,0.1,0.26,0.23,0.27,0.39c0,0.08-0.01,0.15-0.04,0.22c-0.03,0.07-0.07,0.13-0.12,0.18c-0.08-0.04-0.17-0.07-0.27-0.1
			C24.99,6.61,24.87,6.6,24.75,6.61z"/>
		<path class="st0" d="M27.68,5.93c0.22,0.02,0.41,0.07,0.58,0.13c0.17,0.07,0.32,0.15,0.43,0.26c0.12,0.11,0.2,0.24,0.25,0.39
			C29,6.87,29.02,7.05,29,7.25l-0.15,1.46c-0.01,0.11-0.05,0.2-0.11,0.26c-0.06,0.06-0.14,0.11-0.22,0.15
			c-0.14,0.07-0.3,0.11-0.5,0.13c-0.19,0.02-0.41,0.02-0.65-0.01c-0.43-0.05-0.76-0.17-1-0.37c-0.24-0.2-0.34-0.47-0.3-0.82
			c0.03-0.3,0.14-0.51,0.33-0.65c0.19-0.14,0.46-0.2,0.82-0.2l0.84,0l0.01-0.07c0.01-0.14-0.03-0.25-0.13-0.32
			c-0.1-0.08-0.26-0.13-0.46-0.15C27.31,6.64,27.16,6.64,27,6.66c-0.16,0.02-0.3,0.05-0.42,0.09c-0.05-0.04-0.08-0.1-0.11-0.17
			c-0.03-0.08-0.04-0.15-0.03-0.24c0.02-0.19,0.13-0.31,0.33-0.38c0.13-0.03,0.27-0.05,0.43-0.06S27.52,5.91,27.68,5.93z
			 M27.38,4.54c0.09,0.01,0.17,0.03,0.25,0.06s0.16,0.06,0.23,0.09c0.07,0.03,0.14,0.06,0.2,0.09c0.06,0.03,0.12,0.04,0.17,0.05
			c0.09,0.01,0.16-0.01,0.21-0.06c0.05-0.05,0.09-0.09,0.12-0.13l0.03,0c0.12,0.01,0.22,0.07,0.3,0.16c0.08,0.1,0.11,0.21,0.1,0.35
			c-0.02,0.18-0.09,0.31-0.21,0.38c-0.12,0.07-0.26,0.1-0.43,0.08c-0.1-0.01-0.19-0.03-0.27-0.06c-0.08-0.03-0.16-0.06-0.23-0.09
			c-0.07-0.03-0.13-0.06-0.19-0.09c-0.06-0.03-0.11-0.04-0.16-0.05c-0.09-0.01-0.16,0.01-0.21,0.06c-0.05,0.05-0.09,0.09-0.12,0.14
			l-0.02,0c-0.12-0.01-0.22-0.07-0.31-0.16c-0.08-0.09-0.12-0.21-0.1-0.35c0.01-0.09,0.04-0.17,0.08-0.23
			c0.04-0.06,0.09-0.11,0.15-0.15c0.06-0.04,0.13-0.06,0.2-0.08C27.23,4.54,27.3,4.53,27.38,4.54z M27.45,8.51
			c0.09,0.01,0.18,0.01,0.28,0c0.09-0.01,0.16-0.03,0.21-0.05l0.06-0.6l-0.52-0.01c-0.13,0-0.25,0.02-0.33,0.06
			C27.06,7.95,27.01,8.02,27,8.12c-0.01,0.1,0.02,0.19,0.09,0.26C27.15,8.45,27.27,8.49,27.45,8.51z"/>
		<path class="st0" d="M32.69,8.8c-0.07,0.25-0.17,0.46-0.3,0.63c-0.13,0.18-0.28,0.31-0.46,0.41c-0.17,0.1-0.37,0.15-0.58,0.17
			c-0.21,0.02-0.43-0.01-0.67-0.08c-0.23-0.07-0.43-0.17-0.6-0.31c-0.17-0.13-0.3-0.29-0.4-0.47c-0.1-0.18-0.15-0.38-0.17-0.6
			c-0.02-0.22,0.01-0.45,0.09-0.7c0.07-0.24,0.17-0.45,0.3-0.62c0.13-0.17,0.28-0.31,0.46-0.4c0.17-0.1,0.37-0.15,0.58-0.17
			c0.21-0.02,0.43,0.01,0.66,0.08c0.23,0.07,0.43,0.17,0.6,0.31c0.17,0.13,0.3,0.29,0.39,0.47c0.09,0.18,0.15,0.38,0.17,0.6
			C32.78,8.33,32.76,8.56,32.69,8.8z M31.39,7.48c-0.19-0.06-0.36-0.03-0.5,0.08c-0.15,0.11-0.26,0.3-0.34,0.57
			c-0.08,0.28-0.09,0.5-0.03,0.68c0.06,0.17,0.19,0.29,0.38,0.35c0.19,0.06,0.36,0.03,0.51-0.08c0.14-0.11,0.26-0.31,0.34-0.58
			c0.08-0.27,0.08-0.49,0.02-0.67C31.71,7.66,31.58,7.54,31.39,7.48z"/>
		<path class="st0" d="M35.08,11.99c-0.22-0.14-0.4-0.3-0.53-0.48c-0.13-0.17-0.23-0.36-0.28-0.55c-0.05-0.19-0.06-0.39-0.03-0.59
			c0.03-0.2,0.11-0.4,0.23-0.6l1.3-2.14c0.04,0.02,0.11,0.05,0.18,0.08c0.08,0.04,0.16,0.08,0.23,0.13c0.16,0.1,0.26,0.21,0.29,0.31
			c0.04,0.1,0,0.23-0.09,0.39l-1.07,1.76c-0.12,0.2-0.16,0.39-0.12,0.56s0.14,0.32,0.31,0.43c0.17,0.11,0.34,0.15,0.51,0.11
			c0.17-0.04,0.32-0.16,0.44-0.36l1.29-2.12c0.04,0.02,0.11,0.05,0.18,0.08c0.08,0.04,0.16,0.08,0.23,0.13
			c0.16,0.1,0.26,0.21,0.29,0.31c0.04,0.1,0,0.23-0.09,0.39l-1.08,1.77c-0.12,0.2-0.26,0.36-0.42,0.47
			c-0.16,0.12-0.34,0.2-0.53,0.23c-0.19,0.04-0.39,0.03-0.6-0.02S35.3,12.13,35.08,11.99z"/>
		<path class="st0" d="M38.69,14.71c-0.07-0.01-0.16-0.04-0.26-0.09c-0.1-0.06-0.2-0.13-0.3-0.22c-0.11-0.12-0.2-0.23-0.25-0.35
			c-0.05-0.12-0.06-0.22-0.03-0.31c0.03-0.11,0.08-0.25,0.14-0.41c0.06-0.17,0.13-0.34,0.21-0.54c0.08-0.19,0.17-0.4,0.26-0.62
			c0.09-0.22,0.19-0.44,0.29-0.65c0.1-0.22,0.2-0.43,0.3-0.63c0.1-0.2,0.2-0.39,0.29-0.56c0.07,0,0.16,0.02,0.27,0.06
			c0.1,0.04,0.2,0.1,0.28,0.18c0.1,0.1,0.16,0.2,0.18,0.31c0.02,0.11-0.01,0.23-0.08,0.38c-0.21,0.41-0.42,0.82-0.61,1.2
			c-0.19,0.39-0.38,0.79-0.58,1.21l0.03,0.03c0.37-0.21,0.78-0.45,1.22-0.72c0.44-0.27,0.87-0.54,1.29-0.81
			c0.07,0.02,0.14,0.05,0.21,0.09c0.07,0.04,0.14,0.09,0.21,0.16c0.1,0.1,0.16,0.21,0.19,0.33c0.03,0.12-0.01,0.23-0.11,0.34
			c-0.06,0.07-0.17,0.15-0.32,0.25c-0.15,0.1-0.33,0.21-0.54,0.32c-0.21,0.11-0.43,0.23-0.66,0.35c-0.23,0.12-0.46,0.23-0.67,0.33
			c-0.21,0.1-0.41,0.18-0.58,0.25C38.9,14.65,38.77,14.69,38.69,14.71z"/>
	</g>
	<g>
		<defs>
			<path id="SVGID_3_" d="M25.49,48.03c-10.8,0-19.58-9.07-19.58-20.22h0.68c0,10.76,8.48,19.52,18.91,19.52S44.4,38.57,44.4,27.81
				h0.68C45.08,38.96,36.29,48.03,25.49,48.03z"/>
		</defs>
		<use xlink:href="#SVGID_3_"  style="overflow:visible;fill:#68a7cf;"/>
		<clipPath id="SVGID_1_">
			<use xlink:href="#SVGID_3_"  style="overflow:visible;"/>
		</clipPath>
	</g>
</g>
</svg>
