<?xml version="1.0" encoding="utf-8"?>
<!-- Generator: Adobe Illustrator 24.0.1, SVG Export Plug-In . SVG Version: 6.00 Build 0)  -->
<svg version="1.1" id="Camada_1" xmlns="http://www.w3.org/2000/svg" xmlns:xlink="http://www.w3.org/1999/xlink" x="0px" y="0px"
	 viewBox="0 0 30 30" style="enable-background:new 0 0 30 30;" xml:space="preserve">
<g fill="#A86F7A"> 
	<path d="M21.95,6.33c-0.89,0-1.61,0.72-1.61,1.61c0,0.89,0.72,1.61,1.61,1.61c0.89,0,1.61-0.72,1.61-1.61
		C23.56,7.06,22.84,6.33,21.95,6.33z"/>
	<path d="M14.78,8.4C11.04,8.4,8,11.44,8,15.18c0,3.74,3.04,6.78,6.78,6.78c3.74,0,6.78-3.04,6.78-6.78
		C21.55,11.44,18.51,8.4,14.78,8.4z M14.78,19.52c-2.39,0-4.34-1.95-4.34-4.34c0-2.39,1.95-4.34,4.34-4.34
		c2.39,0,4.34,1.95,4.34,4.34C19.12,17.57,17.17,19.52,14.78,19.52z"/>
	<path d="M20.16,28.94H9.17c-4.56,0-8.27-3.71-8.27-8.27V9.69c0-4.56,3.71-8.27,8.27-8.27h10.99c4.56,0,8.27,3.71,8.27,8.27v10.99
		C28.42,25.23,24.71,28.94,20.16,28.94z M9.17,4.01c-3.13,0-5.68,2.55-5.68,5.68v10.99c0,3.13,2.55,5.68,5.68,5.68h10.99
		c3.13,0,5.68-2.55,5.68-5.68V9.69c0-3.13-2.55-5.68-5.68-5.68H9.17z"/>
</g>
</svg>
