<?xml version="1.0" encoding="utf-8"?>
<!-- Generator: Adobe Illustrator 24.0.1, SVG Export Plug-In . SVG Version: 6.00 Build 0)  -->
<svg version="1.1" id="Camada_1" xmlns="http://www.w3.org/2000/svg" xmlns:xlink="http://www.w3.org/1999/xlink" x="0px" y="0px"
	 viewBox="0 0 30 30" style="enable-background:new 0 0 30 30;" xml:space="preserve">
<style type="text/css">
	.st0{opacity:0.8;}
</style>
<g class="st0">
	<path d="M15,1.13c-6.43,0-11.65,5.1-11.65,11.37c0,4.19,4.7,10.47,8.64,15c0.75,0.87,1.85,1.36,3.01,1.36
		c1.16,0,2.26-0.5,3.01-1.36c3.94-4.53,8.64-10.82,8.64-15C26.65,6.23,21.43,1.13,15,1.13z M15.6,25.51
		c-0.2,0.24-0.46,0.27-0.6,0.27c-0.14,0-0.4-0.04-0.6-0.27c-4.94-5.68-7.89-10.54-7.89-13c0-4.57,3.81-8.28,8.49-8.28
		c4.68,0,8.49,3.72,8.49,8.28C23.49,14.97,20.54,19.83,15.6,25.51z"/>
	<path d="M17.41,12.03c0,1.3-1.08,2.35-2.41,2.35c-1.33,0-2.41-1.05-2.41-2.35S13.67,9.68,15,9.68
		C16.33,9.68,17.41,10.74,17.41,12.03z"/>
</g>
</svg>
