<?xml version="1.0" encoding="utf-8"?>
<!-- Generator: Adobe Illustrator 24.0.1, SVG Export Plug-In . SVG Version: 6.00 Build 0)  -->
<svg version="1.1" id="Camada_1" xmlns="http://www.w3.org/2000/svg" xmlns:xlink="http://www.w3.org/1999/xlink" x="0px" y="0px"
	 viewBox="0 0 30 30" style="enable-background:new 0 0 30 30;" xml:space="preserve">
<path d="M17.26,14.13c2.34-0.85,4.01-2.98,4.01-5.47c0-3.24-2.82-5.87-6.28-5.87c-3.46,0-6.28,2.63-6.28,5.87
	c0,2.49,1.67,4.62,4.01,5.47c-4.69,0.97-8.21,4.89-8.21,9.56c0,1.94,1.68,3.51,3.76,3.51h13.44c2.07,0,3.76-1.58,3.76-3.51
	C25.48,19.02,21.96,15.1,17.26,14.13z M11.45,8.66c0-1.83,1.59-3.32,3.55-3.32s3.55,1.49,3.55,3.32s-1.59,3.32-3.55,3.32
	S11.45,10.49,11.45,8.66z M21.72,24.65H8.28c-0.57,0-1.03-0.43-1.03-0.96c0-3.99,3.48-7.24,7.75-7.24c4.27,0,7.75,3.25,7.75,7.24
	C22.75,24.22,22.29,24.65,21.72,24.65z"/>
</svg>
