<?xml version="1.0" encoding="utf-8"?>
<!-- Generator: Adobe Illustrator 24.0.1, SVG Export Plug-In . SVG Version: 6.00 Build 0)  -->
<svg version="1.1" id="Camada_1" xmlns="http://www.w3.org/2000/svg" xmlns:xlink="http://www.w3.org/1999/xlink" x="0px" y="0px"
	 viewBox="0 0 1500 1060" style="enable-background:new 0 0 1500 1060;" xml:space="preserve">
<style type="text/css">
	.st0{fill:#4e8ebf;}
	.st1{fill-rule:evenodd;clip-rule:evenodd;fill:#4e8ebf;}
</style>
<g>
	<path class="st0" d="M130.78,306.27c0-2.19-0.59-4.05-1.76-5.58c-1.17-1.53-2.75-2.3-4.74-2.3c-1.81,0-3.29,0.77-4.47,2.3
		c-1.17,1.53-1.76,3.39-1.76,5.58c0,4.38-1.22,8.05-3.66,11c-2.44,2.96-5.46,4.43-9.07,4.43c-3.61,0-6.63-1.48-9.07-4.43
		c-2.44-2.96-3.65-6.62-3.65-11c0-5.25,0.86-10.24,2.57-14.94c1.71-4.71,3.97-8.81,6.77-12.32c2.8-3.5,6.14-6.29,10.02-8.37
		c3.88-2.08,7.99-3.12,12.32-3.12c5.78,0,11.01,1.81,15.7,5.42c4.69,3.61,8.57,8.16,11.64,13.63c5.42-5.91,11.46-10.56,18.14-13.96
		c6.68-3.39,13.81-5.09,21.39-5.09c9.75,0,18.73,2.68,26.94,8.05c8.21,5.36,15.21,12.64,20.98,21.84
		c5.41-9.2,12.18-16.48,20.31-21.84c8.12-5.36,17.15-8.05,27.08-8.05c8.48,0,16.38,2.02,23.69,6.08
		c7.31,4.05,13.72,9.58,19.22,16.58c5.51,7.01,9.84,15.22,13,24.63c3.16,9.41,4.74,19.38,4.74,29.88v88.01c0,4.38-1.22,8.05-3.66,11
		c-2.44,2.96-5.46,4.43-9.07,4.43c-3.61,0-6.63-1.48-9.07-4.43c-2.44-2.96-3.65-6.62-3.65-11v-88.01c0-6.35-0.9-12.37-2.71-18.06
		c-1.81-5.69-4.33-10.62-7.58-14.78c-3.25-4.16-6.99-7.44-11.24-9.85c-4.24-2.41-8.8-3.61-13.67-3.61c-4.87,0-9.39,1.2-13.54,3.61
		c-4.15,2.41-7.81,5.69-10.97,9.85c-3.16,4.16-5.64,9.09-7.45,14.78c-1.8,5.69-2.71,11.71-2.71,18.06v88.01
		c0,4.38-1.22,8.05-3.65,11c-2.44,2.96-5.46,4.43-9.07,4.43c-3.61,0-6.63-1.48-9.07-4.43c-2.44-2.96-3.66-6.62-3.66-11v-88.01
		c0-6.35-0.95-12.37-2.84-18.06c-1.9-5.69-4.42-10.62-7.58-14.78c-3.16-4.16-6.86-7.44-11.1-9.85c-4.24-2.41-8.8-3.61-13.67-3.61
		c-4.69,0-9.12,1.15-13.27,3.45c-4.15,2.3-7.81,5.47-10.97,9.52c-3.16,4.05-5.69,8.76-7.58,14.12c-1.9,5.36-2.93,11.22-3.11,17.57
		v-0.33v89.98c0,4.38-1.22,8.05-3.66,11c-2.44,2.96-5.46,4.43-9.07,4.43c-3.61,0-6.63-1.48-9.07-4.43c-2.44-2.96-3.66-6.62-3.66-11
		V306.27z"/>
	<path class="st0" d="M386.91,236.65c0-5.47,1.49-10.13,4.47-13.96c2.98-3.83,6.72-5.75,11.24-5.75c4.51,0,8.3,1.92,11.37,5.75
		c3.07,3.83,4.6,8.48,4.6,13.96c0,5.47-1.54,10.02-4.6,13.63c-3.07,3.61-6.86,5.42-11.37,5.42c-4.51,0-8.26-1.81-11.24-5.42
		C388.4,246.66,386.91,242.12,386.91,236.65 M365.53,432.7c0-4.38,1.22-8.05,3.65-11c2.44-2.96,5.46-4.43,9.07-4.43h25.45V305.94
		c0-2.41-0.59-4.32-1.76-5.75c-1.17-1.42-2.75-2.13-4.74-2.13c-1.81,0-3.29,0.71-4.47,2.13c-1.17,1.42-1.76,3.34-1.76,5.75
		c0,4.38-1.22,8.05-3.66,11c-2.44,2.96-5.46,4.43-9.07,4.43c-3.61,0-6.63-1.48-9.07-4.43c-2.44-2.96-3.65-6.62-3.65-11
		c0-5.26,0.86-10.24,2.57-14.94c1.71-4.71,3.97-8.81,6.77-12.31c2.8-3.5,6.14-6.29,10.02-8.37c3.88-2.08,7.99-3.12,12.32-3.12
		c4.33,0,8.44,1.04,12.32,3.12c3.88,2.08,7.27,4.87,10.15,8.37c2.89,3.5,5.19,7.61,6.9,12.31c1.72,4.71,2.57,9.69,2.57,14.94v111.33
		h25.45c3.61,0,6.63,1.48,9.07,4.43c2.44,2.95,3.66,6.62,3.66,11c0,4.38-1.22,8.05-3.66,11c-2.44,2.96-5.46,4.43-9.07,4.43h-76.35
		c-3.61,0-6.63-1.48-9.07-4.43C366.74,440.75,365.53,437.08,365.53,432.7z"/>
	<path class="st0" d="M496.57,306.27c0-2.19-0.63-4.05-1.89-5.58c-1.26-1.53-2.8-2.3-4.6-2.3c-1.8,0-3.29,0.77-4.47,2.3
		c-1.17,1.53-1.76,3.39-1.76,5.58c0,4.38-1.22,8.05-3.65,11c-2.44,2.96-5.46,4.43-9.07,4.43c-3.61,0-6.63-1.48-9.07-4.43
		c-2.44-2.96-3.66-6.62-3.66-11c0-5.25,0.81-10.24,2.44-14.94c1.62-4.71,3.88-8.81,6.77-12.32c2.89-3.5,6.27-6.29,10.15-8.37
		c3.88-2.08,7.99-3.12,12.32-3.12c5.78,0,11.01,1.81,15.7,5.42c4.69,3.61,8.57,8.16,11.64,13.63c5.23-5.91,11.24-10.56,18.01-13.96
		c6.77-3.39,13.94-5.09,21.52-5.09c8.48,0,16.38,2.02,23.69,6.08c7.31,4.05,13.67,9.58,19.09,16.58c5.42,7.01,9.7,15.22,12.86,24.63
		c3.16,9.41,4.74,19.38,4.74,29.88v88.01c0,4.38-1.22,8.05-3.65,11c-2.44,2.96-5.46,4.43-9.07,4.43c-3.61,0-6.63-1.48-9.07-4.43
		c-2.44-2.96-3.65-6.62-3.65-11v-88.01c0-6.35-0.9-12.37-2.71-18.06c-1.81-5.69-4.29-10.62-7.45-14.78
		c-3.16-4.16-6.86-7.44-11.1-9.85c-4.24-2.41-8.8-3.61-13.67-3.61c-4.87,0-9.43,1.2-13.67,3.61c-4.24,2.41-7.94,5.69-11.1,9.85
		c-3.16,4.16-5.64,9.09-7.45,14.78c-1.8,5.69-2.71,11.71-2.71,18.06v88.01c0,4.38-1.22,8.05-3.65,11c-2.44,2.96-5.46,4.43-9.07,4.43
		c-3.61,0-6.63-1.48-9.07-4.43c-2.44-2.96-3.66-6.62-3.66-11V306.27z"/>
	<path class="st0" d="M660.65,236.65c0-5.47,1.49-10.13,4.47-13.96c2.98-3.83,6.72-5.75,11.24-5.75c4.51,0,8.3,1.92,11.37,5.75
		c3.07,3.83,4.6,8.48,4.6,13.96c0,5.47-1.54,10.02-4.6,13.63c-3.07,3.61-6.86,5.42-11.37,5.42c-4.51,0-8.26-1.81-11.24-5.42
		C662.14,246.66,660.65,242.12,660.65,236.65 M639.26,432.7c0-4.38,1.22-8.05,3.66-11c2.44-2.96,5.46-4.43,9.07-4.43h25.45V305.94
		c0-2.41-0.59-4.32-1.76-5.75c-1.17-1.42-2.75-2.13-4.74-2.13c-1.81,0-3.29,0.71-4.47,2.13c-1.17,1.42-1.76,3.34-1.76,5.75
		c0,4.38-1.22,8.05-3.66,11c-2.44,2.96-5.46,4.43-9.07,4.43c-3.61,0-6.63-1.48-9.07-4.43c-2.44-2.96-3.66-6.62-3.66-11
		c0-5.26,0.86-10.24,2.57-14.94c1.71-4.71,3.97-8.81,6.77-12.31c2.8-3.5,6.14-6.29,10.02-8.37c3.88-2.08,7.99-3.12,12.32-3.12
		s8.44,1.04,12.32,3.12c3.88,2.08,7.27,4.87,10.15,8.37c2.89,3.5,5.19,7.61,6.9,12.31c1.72,4.71,2.57,9.69,2.57,14.94v111.33h25.45
		c3.61,0,6.63,1.48,9.07,4.43c2.44,2.95,3.66,6.62,3.66,11c0,4.38-1.22,8.05-3.66,11c-2.44,2.96-5.46,4.43-9.07,4.43h-76.35
		c-3.61,0-6.63-1.48-9.07-4.43C640.48,440.75,639.26,437.08,639.26,432.7z"/>
	<path class="st0" d="M158.28,589.27c0-3.77-1.01-6.97-3.03-9.6c-2.02-2.64-4.74-3.95-8.15-3.95c-3.1,0-5.67,1.32-7.68,3.95
		c-2.02,2.64-3.03,5.84-3.03,9.6c0,7.53-2.1,13.84-6.29,18.93c-4.19,5.08-9.39,7.63-15.6,7.63c-6.21,0-11.41-2.54-15.6-7.63
		c-4.19-5.08-6.29-11.39-6.29-18.93c0-9.04,1.47-17.61,4.42-25.7c2.95-8.1,6.83-15.16,11.64-21.19
		c4.81-6.03,10.56-10.83,17.23-14.41c6.68-3.58,13.74-5.37,21.19-5.37c9.94,0,18.94,3.11,27.02,9.32
		c8.07,6.21,14.75,14.03,20.03,23.45c9.32-10.17,19.72-18.17,31.21-24.01c11.49-5.84,23.75-8.76,36.8-8.76
		c16.77,0,32.22,4.61,46.35,13.84c14.13,9.23,26.16,21.75,36.1,37.57c9.32-15.82,20.96-28.34,34.93-37.57
		c13.97-9.23,29.5-13.84,46.58-13.84c14.59,0,28.18,3.48,40.76,10.45c12.57,6.97,23.6,16.48,33.07,28.53
		c9.47,12.05,16.92,26.18,22.36,42.37c5.43,16.2,8.15,33.33,8.15,51.41v151.41c0,7.53-2.1,13.84-6.29,18.93
		c-4.19,5.09-9.39,7.63-15.6,7.63c-6.21,0-11.41-2.54-15.6-7.63c-4.19-5.08-6.29-11.39-6.29-18.93V655.37
		c0-10.92-1.55-21.28-4.66-31.07c-3.1-9.79-7.45-18.27-13.04-25.42c-5.59-7.16-12.03-12.81-19.33-16.95
		c-7.3-4.14-15.14-6.21-23.52-6.21c-8.38,0-16.15,2.07-23.29,6.21c-7.14,4.14-13.43,9.79-18.86,16.95
		c-5.43,7.16-9.7,15.63-12.81,25.42c-3.1,9.79-4.66,20.15-4.66,31.07v151.41c0,7.53-2.1,13.84-6.29,18.93
		c-4.19,5.09-9.39,7.63-15.6,7.63c-6.21,0-11.41-2.54-15.6-7.63c-4.19-5.08-6.29-11.39-6.29-18.93V655.37
		c0-10.92-1.63-21.28-4.89-31.07c-3.26-9.79-7.61-18.27-13.04-25.42c-5.43-7.16-11.8-12.81-19.1-16.95
		c-7.3-4.14-15.14-6.21-23.52-6.21c-8.07,0-15.68,1.98-22.82,5.93c-7.14,3.95-13.43,9.42-18.86,16.38
		c-5.43,6.97-9.78,15.07-13.04,24.29c-3.26,9.23-5.05,19.3-5.36,30.22v-0.56v154.8c0,7.53-2.1,13.84-6.29,18.93
		c-4.19,5.09-9.39,7.63-15.6,7.63c-6.21,0-11.41-2.54-15.6-7.63c-4.19-5.08-6.29-11.39-6.29-18.93V589.27z"/>
	<path class="st0" d="M621.09,677.97c0,14.69,2.02,28.44,6.05,41.24c4.04,12.81,9.55,24.01,16.54,33.62
		c6.99,9.6,15.14,17.23,24.45,22.88c9.32,5.65,19.25,8.47,29.81,8.47c10.56,0,20.49-2.83,29.81-8.47
		c9.32-5.65,17.47-13.28,24.45-22.88c6.99-9.6,12.5-20.81,16.54-33.62c4.04-12.8,6.06-26.55,6.06-41.24
		c0-14.69-2.02-28.44-6.06-41.24c-4.04-12.81-9.55-24.01-16.54-33.61c-6.99-9.6-15.14-17.23-24.45-22.88
		c-9.32-5.65-19.25-8.47-29.81-8.47c-10.56,0-20.5,2.83-29.81,8.47c-9.32,5.65-17.47,13.28-24.45,22.88
		c-6.99,9.6-12.5,20.81-16.54,33.61C623.11,649.53,621.09,663.28,621.09,677.97 M577.31,677.97c0-22.22,3.18-42.94,9.55-62.14
		c6.37-19.21,14.98-36.06,25.85-50.56c10.87-14.5,23.6-25.89,38.19-34.18c14.59-8.29,30.28-12.43,47.04-12.43
		s32.45,4.14,47.04,12.43c14.59,8.29,27.33,19.68,38.19,34.18c10.87,14.5,19.48,31.35,25.85,50.56c6.37,19.21,9.55,39.92,9.55,62.14
		c0,21.85-3.18,42.46-9.55,61.86c-6.37,19.4-14.98,36.35-25.85,50.85c-10.87,14.5-23.6,25.89-38.19,34.18
		c-14.59,8.29-30.28,12.43-47.04,12.43s-32.45-4.14-47.04-12.43c-14.59-8.28-27.32-19.68-38.19-34.18
		c-10.87-14.5-19.49-31.45-25.85-50.85C580.49,720.43,577.31,699.81,577.31,677.97z"/>
	<path class="st0" d="M1200.22,589.27c0-3.77-1.09-6.97-3.26-9.6c-2.17-2.64-4.81-3.95-7.92-3.95c-3.1,0-5.67,1.32-7.68,3.95
		c-2.02,2.64-3.03,5.84-3.03,9.6c0,7.53-2.1,13.84-6.29,18.93c-4.19,5.08-9.39,7.63-15.6,7.63c-6.21,0-11.41-2.54-15.6-7.63
		c-4.19-5.08-6.29-11.39-6.29-18.93c0-9.04,1.4-17.61,4.19-25.7c2.79-8.1,6.68-15.16,11.64-21.19c4.97-6.03,10.79-10.83,17.47-14.41
		c6.68-3.58,13.74-5.37,21.19-5.37c9.94,0,18.94,3.11,27.02,9.32c8.07,6.21,14.75,14.03,20.03,23.45
		c9.01-10.17,19.33-18.17,30.97-24.01c11.64-5.84,23.99-8.76,37.03-8.76c14.59,0,28.18,3.48,40.76,10.45
		c12.58,6.97,23.52,16.48,32.84,28.53c9.32,12.05,16.69,26.18,22.12,42.37c5.43,16.2,8.15,33.33,8.15,51.41v151.41
		c0,7.53-2.1,13.84-6.29,18.93c-4.19,5.09-9.39,7.63-15.6,7.63c-6.21,0-11.41-2.54-15.6-7.63c-4.19-5.08-6.29-11.39-6.29-18.93
		V655.37c0-10.92-1.55-21.28-4.66-31.07c-3.11-9.79-7.37-18.27-12.81-25.42c-5.43-7.16-11.8-12.81-19.1-16.95
		c-7.3-4.14-15.14-6.21-23.52-6.21c-8.38,0-16.22,2.07-23.52,6.21c-7.3,4.14-13.66,9.79-19.1,16.95
		c-5.43,7.16-9.7,15.63-12.81,25.42c-3.11,9.79-4.66,20.15-4.66,31.07v151.41c0,7.53-2.1,13.84-6.29,18.93
		c-4.19,5.09-9.39,7.63-15.6,7.63c-6.21,0-11.41-2.54-15.6-7.63c-4.19-5.08-6.29-11.39-6.29-18.93V589.27z"/>
	<path class="st1" d="M985.34,513.11c-75.07,0-135.92,73.81-135.92,164.86c0,91.05,60.85,164.86,135.92,164.86
		c75.07,0,135.92-73.81,135.92-164.86C1121.26,586.92,1060.4,513.11,985.34,513.11z M927.13,668.56c-0.51,0.85-1.5,1.04-2.2,0.41
		c-0.59-0.52-1.25-0.98-1.98-1.36c-0.43-0.23-0.93-0.37-1.41-0.55c-0.12,0.28-0.28,0.51-0.41,0.77c0.54,0.29,1.06,0.61,1.53,0.99
		c0.98,0.79,1.81,1.78,2.38,2.98c0.43,0.91,0.18,2.08-0.57,2.61c-0.75,0.53-1.72,0.22-2.15-0.7c-0.31-0.66-0.8-1.24-1.39-1.71
		c-0.57-0.45-1.25-0.74-1.94-1.01c-0.66,0.72-1.37,1.36-2.14,1.9c0.45,0.78,0.84,1.58,1.11,2.43c0.46,1.45,0.66,2.96,0.57,4.54
		c-0.05,1.05-0.8,1.85-1.67,1.79c-0.87-0.07-1.53-0.97-1.47-2.03c0.05-1.03-0.07-2-0.36-2.93c-0.25-0.77-0.66-1.52-1.16-2.25
		c-1.32,0.48-2.68,0.82-4.05,0.83c-0.05,0-0.1-0.02-0.16-0.02c-0.01,1.04-0.08,2.03-0.25,2.91c-0.3,1.54-0.83,2.83-1.6,3.86
		c-0.59,0.78-1.58,0.84-2.23,0.13c-0.64-0.71-0.69-1.92-0.11-2.7c0.4-0.54,0.69-1.26,0.86-2.15c0.14-0.72,0.18-1.58,0.17-2.52
		c-0.97-0.29-1.91-0.7-2.78-1.28c-0.04-0.02-0.07-0.06-0.1-0.09c-0.37,0.69-0.75,1.32-1.15,1.84c-0.79,1.02-1.64,1.72-2.56,2.1
		c-0.83,0.33-1.71-0.21-1.99-1.21c-0.27-1,0.18-2.08,1-2.41c0.4-0.16,0.82-0.52,1.24-1.08c0.33-0.43,0.65-1,0.97-1.64
		c-0.64-0.82-1.19-1.75-1.65-2.81c-0.81,0.01-1.61,0.02-2.35,0.12c-0.93,0.13-1.78,0.34-2.53,0.61c-0.83,0.31-1.71-0.26-1.96-1.27
		c-0.25-1.01,0.22-2.07,1.05-2.38c0.96-0.35,1.99-0.61,3.09-0.76c0.49-0.07,1.07-0.05,1.59-0.08c-0.04-0.22-0.11-0.4-0.14-0.62
		c-0.14-1.04,0.44-2.02,1.3-2.19c0.86-0.17,1.67,0.54,1.81,1.58c0.46,3.4,1.95,5.68,3.89,6.95c1.36,0.9,2.95,1.33,4.57,1.32
		c1.64-0.01,3.31-0.47,4.8-1.35c2.4-1.41,4.32-3.91,4.89-7.34c0.17-1.04,1-1.71,1.86-1.5c0.84,0.2,1.39,1.19,1.24,2.21
		c0.55,0.21,1.13,0.37,1.63,0.64c0.94,0.5,1.8,1.09,2.58,1.78C927.49,666.51,927.64,667.71,927.13,668.56z M997.91,687.18
		c-0.58,3.3-2.87,6.75-5.97,9.18c-2.14,1.68-4.68,2.9-7.32,3.27c-2.7,0.38-5.5-0.11-8.06-1.9c-2.93-2.04-5.53-5.75-7.26-11.73
		c-0.29-1,0.15-2.08,0.97-2.43c0.82-0.35,1.72,0.18,2.01,1.18c1.45,5,3.53,8.05,5.85,9.66c1.93,1.34,4.06,1.71,6.14,1.42
		c2.13-0.3,4.22-1.31,5.98-2.69c2.42-1.9,4.19-4.44,4.59-6.74c0.18-1.03,1.01-1.7,1.86-1.48
		C997.54,685.14,998.09,686.15,997.91,687.18z M1027.9,615.91c0-11.82,7.9-21.41,17.65-21.41c9.75,0,17.65,9.58,17.65,21.41
		c0,11.82-7.9,21.41-17.65,21.41C1035.8,637.32,1027.9,627.74,1027.9,615.91z M1072.12,682.54c-0.6,0.76-1.6,0.78-2.23,0.05
		c-0.91-1.06-1.72-1.87-2.53-2.52c-0.49-0.39-1.05-0.68-1.59-1c-0.3,0.58-0.63,1.07-0.96,1.57c0.41,0.31,0.8,0.62,1.18,0.98
		c0.77,0.73,1.5,1.59,2.46,2.86c0.59,0.78,0.54,1.99-0.1,2.7c-0.64,0.71-1.64,0.65-2.23-0.13c-0.85-1.13-1.46-1.86-2.06-2.43
		c-0.45-0.42-0.95-0.79-1.52-1.17c-0.26,0.24-0.53,0.43-0.8,0.64c0.37,0.61,0.7,1.27,0.95,1.99c0.61,1.74,0.88,3.73,0.8,5.24
		c-0.06,1.05-0.81,1.85-1.68,1.78c-0.87-0.07-1.53-0.98-1.47-2.04c0.05-0.98-0.13-2.3-0.55-3.49c-0.29-0.81-0.67-1.49-1.12-1.87
		c-0.94,0.32-1.88,0.48-2.83,0.49c-0.22,4.03-0.33,5.15-0.33,5.15c-0.09,1.05-0.86,1.82-1.72,1.71c-0.86-0.1-1.5-1.04-1.41-2.09
		c0,0,0.11-1.06,0.34-5.34c-0.95-0.36-1.83-0.87-2.66-1.53c-1.42,1.49-1.96,2.11-2.84,3.93c-0.44,0.91-1.4,1.21-2.15,0.68
		c-0.75-0.53-1-1.7-0.56-2.61c1.05-2.18,1.7-2.99,3.13-4.51c-0.53-0.8-0.97-1.71-1.36-2.68c-0.35,0.24-0.78,0.45-1.06,0.71
		c-0.51,0.47-0.9,0.98-1.16,1.52c-0.44,0.91-1.4,1.22-2.15,0.7c-0.75-0.53-1.01-1.7-0.57-2.61c0.47-0.98,1.13-1.86,1.97-2.64
		c0.56-0.52,1.24-0.98,1.97-1.41c-0.02-0.12-0.05-0.23-0.07-0.35c-0.13-1.04,0.47-2.02,1.33-2.17c0.86-0.15,1.66,0.57,1.79,1.62
		c0.33,2.64,1.35,4.74,2.74,6.15c1.09,1.11,2.41,1.81,3.79,2.02c1.39,0.22,2.86-0.05,4.26-0.88c1.93-1.14,3.73-3.36,5-6.85
		c0.35-0.97,1.28-1.4,2.08-0.98c0.63,0.33,0.97,1.1,0.92,1.89c0.66,0.39,1.33,0.74,1.97,1.24c0.99,0.79,1.96,1.74,2.99,2.95
		C1072.7,680.57,1072.72,681.78,1072.12,682.54z M1076.18,658.63c-5.87,0-10.62-5.77-10.62-12.88c0-7.12,4.76-12.88,10.62-12.88
		c5.87,0,10.62,5.77,10.62,12.88C1086.8,652.87,1082.04,658.63,1076.18,658.63z M1080.19,609.92c-5.87,0-10.62-5.77-10.62-12.88
		c0-7.11,4.76-12.88,10.62-12.88c5.87,0,10.62,5.77,10.62,12.88C1090.81,604.15,1086.06,609.92,1080.19,609.92z"/>
</g>
</svg>
