<?xml version="1.0" encoding="utf-8"?>
<!-- Generator: Adobe Illustrator 24.0.1, SVG Export Plug-In . SVG Version: 6.00 Build 0)  -->
<svg version="1.1" id="Camada_1" xmlns="http://www.w3.org/2000/svg" xmlns:xlink="http://www.w3.org/1999/xlink" x="0px" y="0px"
	 viewBox="0 0 30 30" style="enable-background:new 0 0 30 30;" xml:space="preserve">
<style type="text/css">
	.st0{fill:#F2F2F2;}
</style>
<path class="st0" d="M15.48,4.32c-5.99,0-10.86,4.87-10.86,10.86s4.87,10.86,10.86,10.86s10.86-4.87,10.86-10.86
	S21.46,4.32,15.48,4.32z M23.95,14.03h-3.3c-0.12-2.38-0.6-4.74-1.43-6.53C21.73,8.72,23.56,11.15,23.95,14.03z M15.48,23.73
	c-1.06,0-2.63-2.91-2.86-7.41h5.73C18.11,20.82,16.54,23.73,15.48,23.73z M12.62,14.03c0.23-4.49,1.8-7.41,2.86-7.41
	s2.63,2.91,2.86,7.41H12.62z M11.74,7.5c-0.83,1.8-1.31,4.15-1.43,6.53h-3.3C7.4,11.15,9.22,8.72,11.74,7.5z M7.01,16.33h3.3
	c0.12,2.38,0.6,4.74,1.43,6.53C9.22,21.63,7.4,19.21,7.01,16.33z M19.22,22.86c0.83-1.8,1.31-4.15,1.43-6.53h3.3
	C23.56,19.21,21.73,21.63,19.22,22.86z"/>
</svg>
