<?xml version="1.0" encoding="utf-8"?>
<!-- Generator: Adobe Illustrator 24.0.1, SVG Export Plug-In . SVG Version: 6.00 Build 0)  -->
<svg version="1.1" id="Camada_1" xmlns="http://www.w3.org/2000/svg" xmlns:xlink="http://www.w3.org/1999/xlink" x="0px" y="0px"
	 viewBox="0 0 30 30" style="enable-background:new 0 0 30 30;" xml:space="preserve">
<style type="text/css">
	.st0{fill-rule:evenodd;clip-rule:evenodd;}
</style>
<g fill="#ffffff">
	<path d="M1.32,28.55l1.97-7.34c-1.11-2.01-1.7-4.26-1.7-6.54c0-7.47,6.08-13.55,13.55-13.55c7.47,0,13.55,6.08,13.55,13.55
		c0,7.47-6.08,13.55-13.55,13.55c-2.24,0-4.46-0.57-6.44-1.64L1.32,28.55z M9.06,23.82l0.46,0.28c1.7,1.02,3.64,1.55,5.61,1.55
		c6.06,0,10.99-4.93,10.99-10.99c0-6.06-4.93-10.99-10.99-10.99c-6.06,0-10.99,4.93-10.99,10.99c0,2,0.56,3.97,1.61,5.7l0.29,0.47
		l-1.1,4.1L9.06,23.82z"/>
	<path  class="st0" d="M20.17,16.55c-0.56-0.33-1.28-0.71-1.94-0.44c-0.5,0.21-0.83,1-1.15,1.4c-0.17,0.21-0.37,0.24-0.62,0.14
		c-1.89-0.75-3.34-2.02-4.38-3.76c-0.18-0.27-0.15-0.48,0.07-0.73c0.32-0.37,0.71-0.79,0.8-1.29c0.09-0.5-0.15-1.09-0.36-1.53
		c-0.26-0.57-0.56-1.38-1.13-1.7c-0.52-0.3-1.21-0.13-1.68,0.25c-0.81,0.66-1.2,1.69-1.18,2.7c0,0.29,0.04,0.58,0.11,0.86
		c0.16,0.67,0.47,1.3,0.82,1.9c0.26,0.45,0.55,0.89,0.86,1.31c1.01,1.37,2.27,2.57,3.73,3.46c0.73,0.45,1.51,0.84,2.32,1.11
		c0.91,0.3,1.72,0.61,2.71,0.43c1.03-0.2,2.05-0.83,2.45-1.83c0.12-0.29,0.18-0.62,0.11-0.93C21.56,17.24,20.69,16.86,20.17,16.55z"
		/>
</g>
</svg>
